
<svg width="604" height="529" viewBox="0 0 604 529" fill="none" xmlns="http://www.w3.org/2000/svg">
<g opacity="0.2">
<g filter="url(#filter0_d_3576_19625)">
<rect width="294" height="75.0155" rx="8" transform="matrix(1 0 0 -1 174 177.015)" fill="white"/>
</g>
<path d="M318.418 152.923C318.418 155.009 317.987 156.604 317.123 157.709C316.26 158.814 314.996 159.367 313.332 159.367C311.688 159.367 310.431 158.824 309.561 157.74C308.691 156.656 308.245 155.102 308.224 153.078V150.302C308.224 148.195 308.659 146.597 309.53 145.505C310.407 144.414 311.667 143.869 313.311 143.869C314.955 143.869 316.212 144.411 317.082 145.495C317.952 146.572 318.397 148.123 318.418 150.146V152.923ZM315.424 149.877C315.424 148.627 315.252 147.719 314.906 147.153C314.568 146.579 314.036 146.293 313.311 146.293C312.606 146.293 312.085 146.566 311.747 147.111C311.415 147.65 311.239 148.496 311.218 149.649V153.317C311.218 154.546 311.384 155.461 311.716 156.062C312.054 156.656 312.593 156.953 313.332 156.953C314.064 156.953 314.592 156.666 314.917 156.093C315.241 155.52 315.41 154.643 315.424 153.462V149.877ZM320.502 157.688C320.502 157.212 320.661 156.825 320.978 156.528C321.303 156.231 321.707 156.083 322.19 156.083C322.681 156.083 323.085 156.231 323.402 156.528C323.727 156.825 323.889 157.212 323.889 157.688C323.889 158.158 323.73 158.541 323.413 158.838C323.095 159.128 322.688 159.273 322.19 159.273C321.7 159.273 321.296 159.128 320.978 158.838C320.661 158.541 320.502 158.158 320.502 157.688ZM336.322 152.923C336.322 155.009 335.89 156.604 335.027 157.709C334.164 158.814 332.9 159.367 331.235 159.367C329.592 159.367 328.335 158.824 327.465 157.74C326.594 156.656 326.149 155.102 326.128 153.078V150.302C326.128 148.195 326.563 146.597 327.434 145.505C328.311 144.414 329.571 143.869 331.215 143.869C332.858 143.869 334.115 144.411 334.986 145.495C335.856 146.572 336.301 148.123 336.322 150.146V152.923ZM333.328 149.877C333.328 148.627 333.155 147.719 332.81 147.153C332.472 146.579 331.94 146.293 331.215 146.293C330.51 146.293 329.989 146.566 329.65 147.111C329.319 147.65 329.143 148.496 329.122 149.649V153.317C329.122 154.546 329.288 155.461 329.619 156.062C329.958 156.656 330.497 156.953 331.235 156.953C331.968 156.953 332.496 156.666 332.821 156.093C333.145 155.52 333.314 154.643 333.328 153.462V149.877ZM348.278 152.923C348.278 155.009 347.847 156.604 346.983 157.709C346.12 158.814 344.856 159.367 343.192 159.367C341.548 159.367 340.291 158.824 339.421 157.74C338.551 156.656 338.105 155.102 338.084 153.078V150.302C338.084 148.195 338.52 146.597 339.39 145.505C340.267 144.414 341.527 143.869 343.171 143.869C344.815 143.869 346.072 144.411 346.942 145.495C347.812 146.572 348.258 148.123 348.278 150.146V152.923ZM345.284 149.877C345.284 148.627 345.112 147.719 344.766 147.153C344.428 146.579 343.896 146.293 343.171 146.293C342.467 146.293 341.945 146.566 341.607 147.111C341.275 147.65 341.099 148.496 341.078 149.649V153.317C341.078 154.546 341.244 155.461 341.576 156.062C341.914 156.656 342.453 156.953 343.192 156.953C343.924 156.953 344.452 156.666 344.777 156.093C345.101 155.52 345.271 154.643 345.284 153.462V149.877ZM360.235 152.923C360.235 155.009 359.803 156.604 358.94 157.709C358.076 158.814 356.812 159.367 355.148 159.367C353.504 159.367 352.247 158.824 351.377 157.74C350.507 156.656 350.061 155.102 350.041 153.078V150.302C350.041 148.195 350.476 146.597 351.346 145.505C352.223 144.414 353.483 143.869 355.127 143.869C356.771 143.869 358.028 144.411 358.898 145.495C359.768 146.572 360.214 148.123 360.235 150.146V152.923ZM357.241 149.877C357.241 148.627 357.068 147.719 356.723 147.153C356.384 146.579 355.852 146.293 355.127 146.293C354.423 146.293 353.901 146.566 353.563 147.111C353.231 147.65 353.055 148.496 353.035 149.649V153.317C353.035 154.546 353.2 155.461 353.532 156.062C353.87 156.656 354.409 156.953 355.148 156.953C355.88 156.953 356.408 156.666 356.733 156.093C357.058 155.52 357.227 154.643 357.241 153.462V149.877ZM372.191 152.923C372.191 155.009 371.759 156.604 370.896 157.709C370.032 158.814 368.769 159.367 367.104 159.367C365.46 159.367 364.203 158.824 363.333 157.74C362.463 156.656 362.018 155.102 361.997 153.078V150.302C361.997 148.195 362.432 146.597 363.302 145.505C364.179 144.414 365.44 143.869 367.083 143.869C368.727 143.869 369.984 144.411 370.854 145.495C371.725 146.572 372.17 148.123 372.191 150.146V152.923ZM369.197 149.877C369.197 148.627 369.024 147.719 368.679 147.153C368.34 146.579 367.809 146.293 367.083 146.293C366.379 146.293 365.858 146.566 365.519 147.111C365.188 147.65 365.012 148.496 364.991 149.649V153.317C364.991 154.546 365.157 155.461 365.488 156.062C365.826 156.656 366.365 156.953 367.104 156.953C367.836 156.953 368.365 156.666 368.689 156.093C369.014 155.52 369.183 154.643 369.197 153.462V149.877ZM384.251 145.754L378.418 159.159H375.258L381.101 146.5H373.601V144.076H384.251V145.754ZM388.997 150.292H390.592C391.352 150.292 391.914 150.102 392.28 149.722C392.647 149.342 392.83 148.838 392.83 148.209C392.83 147.601 392.647 147.128 392.28 146.79C391.921 146.452 391.424 146.282 390.789 146.282C390.215 146.282 389.735 146.441 389.349 146.759C388.962 147.07 388.769 147.477 388.769 147.981H385.775C385.775 147.194 385.985 146.49 386.407 145.868C386.835 145.239 387.429 144.749 388.188 144.397C388.955 144.045 389.798 143.869 390.716 143.869C392.312 143.869 393.562 144.252 394.466 145.018C395.371 145.778 395.823 146.828 395.823 148.168C395.823 148.858 395.613 149.494 395.192 150.074C394.77 150.654 394.218 151.1 393.534 151.41C394.384 151.714 395.015 152.17 395.43 152.778C395.851 153.386 396.062 154.104 396.062 154.933C396.062 156.272 395.571 157.346 394.591 158.154C393.617 158.963 392.325 159.367 390.716 159.367C389.211 159.367 387.978 158.969 387.018 158.175C386.065 157.381 385.588 156.331 385.588 155.026H388.582C388.582 155.592 388.793 156.055 389.214 156.414C389.642 156.773 390.167 156.953 390.789 156.953C391.5 156.953 392.056 156.766 392.457 156.393C392.864 156.013 393.068 155.513 393.068 154.891C393.068 153.386 392.239 152.633 390.582 152.633H388.997V150.292ZM407.738 148.085C407.738 148.817 407.555 149.466 407.189 150.033C406.823 150.599 406.319 151.051 405.677 151.39C406.409 151.742 406.989 152.229 407.417 152.85C407.845 153.465 408.059 154.19 408.059 155.026C408.059 156.366 407.604 157.426 406.692 158.206C405.78 158.98 404.541 159.367 402.973 159.367C401.405 159.367 400.162 158.976 399.243 158.196C398.325 157.415 397.866 156.359 397.866 155.026C397.866 154.19 398.08 153.462 398.508 152.84C398.936 152.218 399.513 151.735 400.238 151.39C399.596 151.051 399.091 150.599 398.725 150.033C398.366 149.466 398.187 148.817 398.187 148.085C398.187 146.8 398.615 145.778 399.471 145.018C400.328 144.252 401.491 143.869 402.963 143.869C404.427 143.869 405.587 144.248 406.443 145.008C407.307 145.761 407.738 146.787 407.738 148.085ZM405.055 154.808C405.055 154.152 404.865 153.627 404.485 153.234C404.106 152.84 403.594 152.643 402.952 152.643C402.317 152.643 401.809 152.84 401.429 153.234C401.049 153.62 400.86 154.145 400.86 154.808C400.86 155.451 401.046 155.969 401.419 156.362C401.792 156.756 402.31 156.953 402.973 156.953C403.622 156.953 404.13 156.763 404.496 156.383C404.869 156.003 405.055 155.478 405.055 154.808ZM404.744 148.23C404.744 147.643 404.589 147.173 404.278 146.821C403.967 146.462 403.529 146.282 402.963 146.282C402.403 146.282 401.968 146.455 401.657 146.8C401.346 147.146 401.191 147.622 401.191 148.23C401.191 148.831 401.346 149.314 401.657 149.68C401.968 150.046 402.407 150.229 402.973 150.229C403.539 150.229 403.974 150.046 404.278 149.68C404.589 149.314 404.744 148.831 404.744 148.23ZM417.136 159.159H414.142V147.619L410.568 148.727V146.293L416.815 144.055H417.136V159.159Z" fill="#242631"/>
<path d="M429.796 160.011V151.93H432.438C433.315 151.93 433.973 152.112 434.414 152.474C434.858 152.837 435.08 153.373 435.08 154.084C435.08 154.461 434.972 154.796 434.758 155.088C434.543 155.377 434.251 155.601 433.881 155.76C434.318 155.882 434.662 156.115 434.913 156.459C435.168 156.799 435.296 157.206 435.296 157.68C435.296 158.405 435.061 158.975 434.591 159.389C434.121 159.804 433.457 160.011 432.599 160.011H429.796ZM430.862 156.231V159.14H432.621C433.117 159.14 433.507 159.012 433.792 158.757C434.081 158.498 434.225 158.142 434.225 157.691C434.225 156.718 433.696 156.231 432.638 156.231H430.862ZM430.862 155.377H432.471C432.937 155.377 433.309 155.26 433.587 155.027C433.868 154.794 434.009 154.478 434.009 154.078C434.009 153.634 433.879 153.312 433.62 153.113C433.361 152.909 432.967 152.807 432.438 152.807H430.862V155.377ZM442.306 152.807H439.708V160.011H438.648V152.807H436.056V151.93H442.306V152.807ZM449.293 157.447C449.193 158.302 448.876 158.962 448.344 159.428C447.815 159.891 447.11 160.122 446.229 160.122C445.275 160.122 444.509 159.78 443.932 159.095C443.358 158.411 443.071 157.495 443.071 156.348V155.571C443.071 154.82 443.205 154.16 443.471 153.59C443.741 153.02 444.122 152.583 444.614 152.28C445.106 151.973 445.676 151.819 446.324 151.819C447.182 151.819 447.87 152.06 448.388 152.541C448.906 153.018 449.208 153.68 449.293 154.528H448.222C448.129 153.884 447.927 153.418 447.617 153.129C447.31 152.841 446.879 152.696 446.324 152.696C445.643 152.696 445.108 152.948 444.72 153.451C444.335 153.954 444.142 154.67 444.142 155.599V156.381C444.142 157.258 444.326 157.956 444.692 158.474C445.058 158.992 445.571 159.251 446.229 159.251C446.821 159.251 447.274 159.117 447.589 158.851C447.907 158.581 448.118 158.113 448.222 157.447H449.293Z" fill="#242631"/>
<path d="M193.311 130.154V120.458H196.048C196.892 120.458 197.638 120.644 198.286 121.017C198.934 121.39 199.433 121.921 199.784 122.609C200.139 123.297 200.319 124.087 200.324 124.98V125.599C200.324 126.514 200.146 127.315 199.791 128.003C199.44 128.692 198.936 129.22 198.279 129.588C197.626 129.957 196.865 130.146 195.995 130.154H193.311ZM194.59 121.51V129.109H195.935C196.921 129.109 197.686 128.803 198.232 128.19C198.783 127.577 199.058 126.705 199.058 125.573V125.006C199.058 123.905 198.799 123.051 198.279 122.442C197.764 121.83 197.032 121.519 196.081 121.51H194.59ZM206.517 130.154C206.446 130.012 206.388 129.759 206.344 129.395C205.771 129.99 205.088 130.288 204.293 130.288C203.582 130.288 202.999 130.088 202.541 129.688C202.088 129.284 201.862 128.774 201.862 128.157C201.862 127.406 202.146 126.825 202.715 126.412C203.287 125.994 204.091 125.786 205.125 125.786H206.324V125.22C206.324 124.789 206.195 124.447 205.938 124.194C205.68 123.936 205.301 123.808 204.799 123.808C204.359 123.808 203.991 123.919 203.693 124.141C203.396 124.363 203.247 124.631 203.247 124.947H202.009C202.009 124.587 202.135 124.241 202.388 123.908C202.646 123.57 202.992 123.304 203.427 123.108C203.867 122.913 204.348 122.815 204.872 122.815C205.703 122.815 206.353 123.024 206.824 123.441C207.294 123.854 207.538 124.425 207.556 125.153V128.47C207.556 129.131 207.641 129.657 207.809 130.048V130.154H206.517ZM204.473 129.215C204.859 129.215 205.225 129.116 205.572 128.916C205.918 128.716 206.169 128.456 206.324 128.137V126.658H205.358C203.849 126.658 203.094 127.1 203.094 127.983C203.094 128.37 203.223 128.672 203.48 128.889C203.738 129.107 204.069 129.215 204.473 129.215ZM210.826 130.154H209.594V122.949H210.826V130.154ZM209.494 121.037C209.494 120.837 209.554 120.669 209.674 120.531C209.798 120.393 209.98 120.325 210.22 120.325C210.46 120.325 210.642 120.393 210.766 120.531C210.89 120.669 210.953 120.837 210.953 121.037C210.953 121.237 210.89 121.404 210.766 121.537C210.642 121.67 210.46 121.737 210.22 121.737C209.98 121.737 209.798 121.67 209.674 121.537C209.554 121.404 209.494 121.237 209.494 121.037ZM214.143 130.154H212.911V119.925H214.143V130.154ZM218.478 128.35L220.156 122.949H221.475L218.578 131.267C218.13 132.465 217.417 133.065 216.44 133.065L216.207 133.045L215.748 132.958V131.959L216.081 131.986C216.498 131.986 216.822 131.902 217.053 131.733C217.288 131.564 217.481 131.256 217.632 130.807L217.905 130.075L215.335 122.949H216.68L218.478 128.35ZM231.638 125.672H227.436V129.109H232.317V130.154H226.157V120.458H232.251V121.51H227.436V124.627H231.638V125.672ZM238.164 130.154C238.093 130.012 238.036 129.759 237.991 129.395C237.418 129.99 236.735 130.288 235.94 130.288C235.23 130.288 234.646 130.088 234.189 129.688C233.736 129.284 233.509 128.774 233.509 128.157C233.509 127.406 233.793 126.825 234.362 126.412C234.934 125.994 235.738 125.786 236.772 125.786H237.971V125.22C237.971 124.789 237.842 124.447 237.585 124.194C237.327 123.936 236.948 123.808 236.446 123.808C236.007 123.808 235.638 123.919 235.341 124.141C235.043 124.363 234.894 124.631 234.894 124.947H233.656C233.656 124.587 233.782 124.241 234.035 123.908C234.293 123.57 234.639 123.304 235.074 123.108C235.514 122.913 235.996 122.815 236.519 122.815C237.35 122.815 238 123.024 238.471 123.441C238.941 123.854 239.186 124.425 239.203 125.153V128.47C239.203 129.131 239.288 129.657 239.456 130.048V130.154H238.164ZM236.12 129.215C236.506 129.215 236.872 129.116 237.219 128.916C237.565 128.716 237.816 128.456 237.971 128.137V126.658H237.006C235.496 126.658 234.741 127.1 234.741 127.983C234.741 128.37 234.87 128.672 235.128 128.889C235.385 129.107 235.716 129.215 236.12 129.215ZM244.618 124.054C244.431 124.023 244.229 124.007 244.012 124.007C243.204 124.007 242.655 124.352 242.367 125.04V130.154H241.135V122.949H242.333L242.353 123.781C242.757 123.137 243.33 122.815 244.072 122.815C244.311 122.815 244.493 122.846 244.618 122.909V124.054ZM246.922 122.949L246.962 123.854C247.512 123.162 248.232 122.815 249.12 122.815C250.643 122.815 251.411 123.675 251.424 125.393V130.154H250.192V125.386C250.187 124.867 250.068 124.483 249.832 124.234C249.601 123.985 249.24 123.861 248.747 123.861C248.347 123.861 247.996 123.968 247.694 124.181C247.393 124.394 247.157 124.673 246.989 125.02V130.154H245.756V122.949H246.922ZM254.621 130.154H253.389V122.949H254.621V130.154ZM253.289 121.037C253.289 120.837 253.349 120.669 253.468 120.531C253.593 120.393 253.775 120.325 254.015 120.325C254.254 120.325 254.436 120.393 254.561 120.531C254.685 120.669 254.747 120.837 254.747 121.037C254.747 121.237 254.685 121.404 254.561 121.537C254.436 121.67 254.254 121.737 254.015 121.737C253.775 121.737 253.593 121.67 253.468 121.537C253.349 121.404 253.289 121.237 253.289 121.037ZM257.764 122.949L257.804 123.854C258.355 123.162 259.074 122.815 259.962 122.815C261.485 122.815 262.253 123.675 262.266 125.393V130.154H261.034V125.386C261.03 124.867 260.91 124.483 260.674 124.234C260.443 123.985 260.082 123.861 259.589 123.861C259.189 123.861 258.838 123.968 258.537 124.181C258.235 124.394 257.999 124.673 257.831 125.02V130.154H256.599V122.949H257.764ZM263.831 126.492C263.831 125.368 264.091 124.476 264.61 123.814C265.13 123.148 265.818 122.815 266.675 122.815C267.554 122.815 268.24 123.126 268.733 123.748L268.793 122.949H269.918V129.981C269.918 130.914 269.641 131.648 269.086 132.186C268.535 132.723 267.794 132.992 266.861 132.992C266.342 132.992 265.833 132.881 265.336 132.659C264.839 132.437 264.459 132.132 264.197 131.746L264.837 131.007C265.365 131.66 266.011 131.986 266.775 131.986C267.374 131.986 267.84 131.817 268.173 131.48C268.511 131.142 268.679 130.667 268.679 130.055V129.435C268.187 130.003 267.514 130.288 266.661 130.288C265.818 130.288 265.134 129.948 264.61 129.269C264.091 128.589 263.831 127.664 263.831 126.492ZM265.07 126.631C265.07 127.444 265.236 128.083 265.569 128.549C265.902 129.011 266.368 129.242 266.968 129.242C267.745 129.242 268.315 128.889 268.679 128.183V124.893C268.302 124.205 267.736 123.861 266.981 123.861C266.382 123.861 265.913 124.094 265.576 124.56C265.238 125.026 265.07 125.717 265.07 126.631ZM275.978 128.243C275.978 127.91 275.852 127.653 275.599 127.471C275.35 127.284 274.913 127.124 274.287 126.991C273.665 126.858 273.17 126.698 272.802 126.512C272.438 126.325 272.167 126.103 271.989 125.846C271.816 125.588 271.73 125.282 271.73 124.927C271.73 124.336 271.978 123.837 272.475 123.428C272.977 123.02 273.616 122.815 274.393 122.815C275.21 122.815 275.872 123.026 276.378 123.448C276.889 123.87 277.144 124.409 277.144 125.066H275.905C275.905 124.729 275.761 124.438 275.472 124.194C275.188 123.95 274.829 123.828 274.393 123.828C273.945 123.828 273.594 123.925 273.341 124.121C273.088 124.316 272.962 124.571 272.962 124.887C272.962 125.184 273.079 125.408 273.315 125.559C273.55 125.71 273.974 125.854 274.587 125.992C275.204 126.13 275.703 126.294 276.085 126.485C276.467 126.676 276.749 126.907 276.931 127.178C277.117 127.444 277.211 127.77 277.211 128.157C277.211 128.8 276.953 129.318 276.438 129.708C275.923 130.095 275.255 130.288 274.433 130.288C273.856 130.288 273.346 130.186 272.902 129.981C272.458 129.777 272.109 129.493 271.856 129.129C271.607 128.76 271.483 128.363 271.483 127.937H272.715C272.737 128.35 272.902 128.678 273.208 128.922C273.519 129.162 273.927 129.282 274.433 129.282C274.9 129.282 275.273 129.189 275.552 129.002C275.836 128.811 275.978 128.558 275.978 128.243Z" fill="#242631"/>
</g>
<g opacity="0.4">
<g filter="url(#filter1_d_3576_19625)">
<rect width="337" height="85.9871" rx="8" transform="matrix(1 0 0 -1 152.5 280.003)" fill="white"/>
</g>
<path d="M318.041 252.9C318.041 255.291 317.546 257.12 316.556 258.387C315.567 259.653 314.118 260.286 312.21 260.286C310.326 260.286 308.885 259.665 307.888 258.422C306.89 257.179 306.38 255.398 306.356 253.078V249.896C306.356 247.481 306.855 245.649 307.852 244.398C308.857 243.147 310.302 242.522 312.186 242.522C314.071 242.522 315.511 243.143 316.509 244.386C317.506 245.621 318.017 247.398 318.041 249.718V252.9ZM314.609 249.409C314.609 247.976 314.411 246.935 314.015 246.286C313.627 245.629 313.018 245.3 312.186 245.3C311.379 245.3 310.781 245.613 310.393 246.239C310.013 246.856 309.811 247.826 309.788 249.148V253.352C309.788 254.761 309.978 255.81 310.358 256.498C310.746 257.179 311.363 257.52 312.21 257.52C313.049 257.52 313.655 257.191 314.027 256.534C314.399 255.877 314.593 254.872 314.609 253.518V249.409ZM320.429 258.363C320.429 257.817 320.611 257.373 320.975 257.033C321.347 256.692 321.81 256.522 322.364 256.522C322.927 256.522 323.39 256.692 323.754 257.033C324.126 257.373 324.312 257.817 324.312 258.363C324.312 258.901 324.13 259.34 323.766 259.681C323.402 260.013 322.934 260.18 322.364 260.18C321.802 260.18 321.339 260.013 320.975 259.681C320.611 259.34 320.429 258.901 320.429 258.363ZM338.563 252.9C338.563 255.291 338.068 257.12 337.079 258.387C336.089 259.653 334.64 260.286 332.733 260.286C330.848 260.286 329.408 259.665 328.41 258.422C327.413 257.179 326.902 255.398 326.878 253.078V249.896C326.878 247.481 327.377 245.649 328.375 244.398C329.38 243.147 330.825 242.522 332.709 242.522C334.593 242.522 336.034 243.143 337.031 244.386C338.029 245.621 338.539 247.398 338.563 249.718V252.9ZM335.131 249.409C335.131 247.976 334.933 246.935 334.538 246.286C334.15 245.629 333.54 245.3 332.709 245.3C331.901 245.3 331.304 245.613 330.916 246.239C330.536 246.856 330.334 247.826 330.31 249.148V253.352C330.31 254.761 330.5 255.81 330.88 256.498C331.268 257.179 331.886 257.52 332.733 257.52C333.572 257.52 334.177 257.191 334.549 256.534C334.922 255.877 335.115 254.872 335.131 253.518V249.409ZM352.268 252.9C352.268 255.291 351.773 257.12 350.784 258.387C349.794 259.653 348.345 260.286 346.438 260.286C344.553 260.286 343.113 259.665 342.115 258.422C341.118 257.179 340.607 255.398 340.583 253.078V249.896C340.583 247.481 341.082 245.649 342.079 244.398C343.085 243.147 344.53 242.522 346.414 242.522C348.298 242.522 349.739 243.143 350.736 244.386C351.734 245.621 352.244 247.398 352.268 249.718V252.9ZM348.836 249.409C348.836 247.976 348.638 246.935 348.243 246.286C347.855 245.629 347.245 245.3 346.414 245.3C345.606 245.3 345.009 245.613 344.621 246.239C344.241 246.856 344.039 247.826 344.015 249.148V253.352C344.015 254.761 344.205 255.81 344.585 256.498C344.973 257.179 345.59 257.52 346.438 257.52C347.277 257.52 347.882 257.191 348.254 256.534C348.626 255.877 348.82 254.872 348.836 253.518V249.409ZM365.973 252.9C365.973 255.291 365.478 257.12 364.489 258.387C363.499 259.653 362.05 260.286 360.142 260.286C358.258 260.286 356.818 259.665 355.82 258.422C354.823 257.179 354.312 255.398 354.288 253.078V249.896C354.288 247.481 354.787 245.649 355.784 244.398C356.79 243.147 358.235 242.522 360.119 242.522C362.003 242.522 363.444 243.143 364.441 244.386C365.439 245.621 365.949 247.398 365.973 249.718V252.9ZM362.541 249.409C362.541 247.976 362.343 246.935 361.947 246.286C361.56 245.629 360.95 245.3 360.119 245.3C359.311 245.3 358.714 245.613 358.326 246.239C357.946 246.856 357.744 247.826 357.72 249.148V253.352C357.72 254.761 357.91 255.81 358.29 256.498C358.678 257.179 359.295 257.52 360.142 257.52C360.982 257.52 361.587 257.191 361.959 256.534C362.331 255.877 362.525 254.872 362.541 253.518V249.409ZM379.678 252.9C379.678 255.291 379.183 257.12 378.194 258.387C377.204 259.653 375.755 260.286 373.847 260.286C371.963 260.286 370.522 259.665 369.525 258.422C368.527 257.179 368.017 255.398 367.993 253.078V249.896C367.993 247.481 368.492 245.649 369.489 244.398C370.495 243.147 371.94 242.522 373.824 242.522C375.708 242.522 377.149 243.143 378.146 244.386C379.144 245.621 379.654 247.398 379.678 249.718V252.9ZM376.246 249.409C376.246 247.976 376.048 246.935 375.652 246.286C375.264 245.629 374.655 245.3 373.824 245.3C373.016 245.3 372.418 245.613 372.031 246.239C371.651 246.856 371.449 247.826 371.425 249.148V253.352C371.425 254.761 371.615 255.81 371.995 256.498C372.383 257.179 373 257.52 373.847 257.52C374.687 257.52 375.292 257.191 375.664 256.534C376.036 255.877 376.23 254.872 376.246 253.518V249.409ZM393.502 244.683L386.816 260.049H383.194L389.892 245.538H381.294V242.759H393.502V244.683ZM398.942 249.884H400.77C401.641 249.884 402.286 249.666 402.706 249.231C403.126 248.796 403.335 248.218 403.335 247.497C403.335 246.801 403.126 246.258 402.706 245.87C402.294 245.483 401.724 245.289 400.996 245.289C400.339 245.289 399.789 245.471 399.345 245.835C398.902 246.191 398.68 246.658 398.68 247.236H395.249C395.249 246.334 395.49 245.526 395.973 244.814C396.464 244.093 397.145 243.531 398.015 243.127C398.894 242.724 399.86 242.522 400.913 242.522C402.742 242.522 404.174 242.961 405.212 243.84C406.249 244.711 406.767 245.914 406.767 247.45C406.767 248.241 406.526 248.97 406.043 249.635C405.56 250.3 404.927 250.81 404.143 251.167C405.117 251.515 405.841 252.037 406.316 252.734C406.799 253.431 407.04 254.254 407.04 255.204C407.04 256.74 406.478 257.971 405.354 258.897C404.238 259.823 402.757 260.286 400.913 260.286C399.187 260.286 397.774 259.831 396.674 258.921C395.581 258.01 395.035 256.807 395.035 255.311H398.467C398.467 255.96 398.708 256.49 399.191 256.902C399.682 257.314 400.284 257.52 400.996 257.52C401.811 257.52 402.449 257.306 402.908 256.878C403.375 256.443 403.608 255.869 403.608 255.157C403.608 253.431 402.658 252.568 400.758 252.568H398.942V249.884ZM420.425 247.355C420.425 248.194 420.215 248.938 419.795 249.587C419.376 250.236 418.798 250.755 418.061 251.143C418.901 251.547 419.566 252.105 420.056 252.817C420.547 253.522 420.793 254.353 420.793 255.311C420.793 256.847 420.27 258.062 419.225 258.956C418.18 259.843 416.759 260.286 414.962 260.286C413.165 260.286 411.74 259.839 410.687 258.945C409.634 258.05 409.108 256.839 409.108 255.311C409.108 254.353 409.353 253.518 409.844 252.805C410.335 252.093 410.996 251.539 411.827 251.143C411.091 250.755 410.513 250.236 410.093 249.587C409.682 248.938 409.476 248.194 409.476 247.355C409.476 245.882 409.967 244.711 410.948 243.84C411.93 242.961 413.264 242.522 414.95 242.522C416.629 242.522 417.959 242.957 418.94 243.828C419.93 244.691 420.425 245.867 420.425 247.355ZM417.349 255.062C417.349 254.309 417.131 253.708 416.696 253.257C416.26 252.805 415.675 252.58 414.938 252.58C414.21 252.58 413.628 252.805 413.193 253.257C412.757 253.7 412.54 254.302 412.54 255.062C412.54 255.798 412.753 256.392 413.181 256.843C413.608 257.294 414.202 257.52 414.962 257.52C415.706 257.52 416.288 257.302 416.708 256.867C417.135 256.431 417.349 255.829 417.349 255.062ZM416.993 247.521C416.993 246.848 416.815 246.31 416.458 245.906C416.102 245.494 415.599 245.289 414.95 245.289C414.309 245.289 413.81 245.487 413.454 245.882C413.098 246.278 412.92 246.824 412.92 247.521C412.92 248.21 413.098 248.764 413.454 249.184C413.81 249.603 414.313 249.813 414.962 249.813C415.611 249.813 416.11 249.603 416.458 249.184C416.815 248.764 416.993 248.21 416.993 247.521ZM426.352 249.884H428.18C429.051 249.884 429.696 249.666 430.116 249.231C430.535 248.796 430.745 248.218 430.745 247.497C430.745 246.801 430.535 246.258 430.116 245.87C429.704 245.483 429.134 245.289 428.406 245.289C427.749 245.289 427.199 245.471 426.755 245.835C426.312 246.191 426.09 246.658 426.09 247.236H422.658C422.658 246.334 422.9 245.526 423.383 244.814C423.874 244.093 424.554 243.531 425.425 243.127C426.304 242.724 427.27 242.522 428.323 242.522C430.151 242.522 431.584 242.961 432.621 243.84C433.658 244.711 434.177 245.914 434.177 247.45C434.177 248.241 433.936 248.97 433.453 249.635C432.97 250.3 432.336 250.81 431.553 251.167C432.526 251.515 433.251 252.037 433.726 252.734C434.209 253.431 434.45 254.254 434.45 255.204C434.45 256.74 433.888 257.971 432.764 258.897C431.648 259.823 430.167 260.286 428.323 260.286C426.597 260.286 425.184 259.831 424.083 258.921C422.991 258.01 422.445 256.807 422.445 255.311H425.877C425.877 255.96 426.118 256.49 426.601 256.902C427.092 257.314 427.693 257.52 428.406 257.52C429.221 257.52 429.859 257.306 430.318 256.878C430.785 256.443 431.018 255.869 431.018 255.157C431.018 253.431 430.068 252.568 428.168 252.568H426.352V249.884Z" fill="#242631"/>
<path d="M445.709 260.341V251.078H448.737C449.742 251.078 450.497 251.286 451.002 251.702C451.51 252.117 451.765 252.732 451.765 253.546C451.765 253.979 451.642 254.363 451.396 254.698C451.15 255.029 450.815 255.285 450.391 255.468C450.891 255.608 451.286 255.875 451.574 256.269C451.867 256.659 452.013 257.126 452.013 257.669C452.013 258.5 451.744 259.153 451.205 259.628C450.666 260.103 449.905 260.341 448.921 260.341H445.709ZM446.93 256.008V259.342H448.947C449.515 259.342 449.962 259.195 450.289 258.903C450.62 258.606 450.785 258.199 450.785 257.681C450.785 256.566 450.179 256.008 448.966 256.008H446.93ZM446.93 255.029H448.775C449.309 255.029 449.736 254.895 450.054 254.628C450.376 254.361 450.537 253.998 450.537 253.54C450.537 253.031 450.389 252.662 450.092 252.433C449.795 252.2 449.343 252.083 448.737 252.083H446.93V255.029ZM460.048 252.083H457.07V260.341H455.855V252.083H452.885V251.078H460.048V252.083ZM468.057 257.402C467.942 258.381 467.58 259.138 466.969 259.673C466.362 260.203 465.555 260.468 464.545 260.468C463.451 260.468 462.573 260.075 461.912 259.291C461.254 258.506 460.925 257.457 460.925 256.142V255.251C460.925 254.39 461.078 253.633 461.384 252.98C461.693 252.327 462.13 251.827 462.694 251.479C463.258 251.127 463.911 250.951 464.653 250.951C465.637 250.951 466.426 251.227 467.02 251.778C467.614 252.325 467.959 253.084 468.057 254.055H466.829C466.723 253.317 466.492 252.783 466.136 252.452C465.784 252.121 465.289 251.956 464.653 251.956C463.873 251.956 463.26 252.244 462.815 252.821C462.374 253.398 462.153 254.219 462.153 255.283V256.18C462.153 257.185 462.363 257.985 462.783 258.578C463.203 259.172 463.79 259.469 464.545 259.469C465.224 259.469 465.743 259.316 466.104 259.011C466.468 258.701 466.71 258.165 466.829 257.402H468.057Z" fill="#242631"/>
<path d="M174.635 225.387V214.272H177.773C178.74 214.272 179.595 214.486 180.338 214.913C181.081 215.341 181.653 215.949 182.056 216.738C182.463 217.526 182.669 218.432 182.674 219.455V220.165C182.674 221.213 182.47 222.132 182.063 222.921C181.661 223.71 181.083 224.315 180.33 224.738C179.582 225.16 178.709 225.376 177.712 225.387H174.635ZM176.101 215.478V224.188H177.643C178.773 224.188 179.651 223.837 180.277 223.135C180.908 222.432 181.223 221.432 181.223 220.135V219.486C181.223 218.224 180.926 217.244 180.33 216.547C179.74 215.844 178.9 215.488 177.811 215.478H176.101ZM189.773 225.387C189.692 225.224 189.626 224.934 189.575 224.516C188.918 225.198 188.135 225.539 187.224 225.539C186.409 225.539 185.74 225.31 185.216 224.852C184.697 224.389 184.437 223.804 184.437 223.096C184.437 222.236 184.763 221.57 185.414 221.096C186.071 220.618 186.992 220.379 188.178 220.379H189.552V219.73C189.552 219.236 189.404 218.844 189.109 218.554C188.814 218.259 188.379 218.112 187.804 218.112C187.3 218.112 186.878 218.239 186.537 218.493C186.196 218.748 186.025 219.056 186.025 219.417H184.605C184.605 219.005 184.75 218.608 185.04 218.226C185.336 217.839 185.732 217.534 186.231 217.31C186.735 217.086 187.287 216.974 187.888 216.974C188.839 216.974 189.585 217.213 190.124 217.692C190.664 218.165 190.944 218.819 190.964 219.654V223.455C190.964 224.214 191.061 224.817 191.254 225.264V225.387H189.773ZM187.43 224.31C187.872 224.31 188.292 224.196 188.689 223.967C189.086 223.738 189.374 223.44 189.552 223.074V221.379H188.445C186.715 221.379 185.85 221.885 185.85 222.898C185.85 223.341 185.997 223.687 186.292 223.936C186.587 224.186 186.967 224.31 187.43 224.31ZM194.712 225.387H193.3V217.127H194.712V225.387ZM193.186 214.936C193.186 214.707 193.254 214.514 193.392 214.356C193.534 214.198 193.743 214.119 194.018 214.119C194.293 214.119 194.501 214.198 194.644 214.356C194.786 214.514 194.857 214.707 194.857 214.936C194.857 215.165 194.786 215.356 194.644 215.508C194.501 215.661 194.293 215.737 194.018 215.737C193.743 215.737 193.534 215.661 193.392 215.508C193.254 215.356 193.186 215.165 193.186 214.936ZM198.514 225.387H197.102V213.661H198.514V225.387ZM203.484 223.318L205.407 217.127H206.919L203.598 226.661C203.084 228.036 202.267 228.723 201.148 228.723L200.88 228.7L200.354 228.6V227.455L200.735 227.486C201.214 227.486 201.585 227.389 201.85 227.196C202.12 227.002 202.341 226.649 202.514 226.135L202.827 225.295L199.88 217.127H201.422L203.484 223.318ZM218.568 220.249H213.751V224.188H219.347V225.387H212.285V214.272H219.27V215.478H213.751V219.051H218.568V220.249ZM226.049 225.387C225.968 225.224 225.902 224.934 225.851 224.516C225.194 225.198 224.41 225.539 223.499 225.539C222.685 225.539 222.016 225.31 221.492 224.852C220.973 224.389 220.713 223.804 220.713 223.096C220.713 222.236 221.039 221.57 221.69 221.096C222.347 220.618 223.268 220.379 224.454 220.379H225.828V219.73C225.828 219.236 225.68 218.844 225.385 218.554C225.09 218.259 224.655 218.112 224.08 218.112C223.576 218.112 223.153 218.239 222.812 218.493C222.471 218.748 222.301 219.056 222.301 219.417H220.881C220.881 219.005 221.026 218.608 221.316 218.226C221.611 217.839 222.008 217.534 222.507 217.31C223.011 217.086 223.563 216.974 224.164 216.974C225.115 216.974 225.861 217.213 226.4 217.692C226.94 218.165 227.22 218.819 227.24 219.654V223.455C227.24 224.214 227.337 224.817 227.53 225.264V225.387H226.049ZM223.706 224.31C224.148 224.31 224.568 224.196 224.965 223.967C225.362 223.738 225.65 223.44 225.828 223.074V221.379H224.721C222.991 221.379 222.125 221.885 222.125 222.898C222.125 223.341 222.273 223.687 222.568 223.936C222.863 224.186 223.242 224.31 223.706 224.31ZM233.446 218.394C233.233 218.358 233.001 218.341 232.752 218.341C231.825 218.341 231.197 218.735 230.866 219.524V225.387H229.454V217.127H230.828L230.851 218.081C231.314 217.343 231.97 216.974 232.82 216.974C233.095 216.974 233.304 217.01 233.446 217.081V218.394ZM236.088 217.127L236.133 218.165C236.764 217.371 237.589 216.974 238.607 216.974C240.352 216.974 241.233 217.959 241.248 219.928V225.387H239.836V219.921C239.831 219.325 239.693 218.885 239.424 218.6C239.159 218.315 238.744 218.173 238.179 218.173C237.721 218.173 237.319 218.295 236.973 218.539C236.627 218.783 236.357 219.104 236.164 219.501V225.387H234.752V217.127H236.088ZM244.912 225.387H243.5V217.127H244.912V225.387ZM243.385 214.936C243.385 214.707 243.454 214.514 243.592 214.356C243.734 214.198 243.943 214.119 244.218 214.119C244.492 214.119 244.701 214.198 244.844 214.356C244.986 214.514 245.057 214.707 245.057 214.936C245.057 215.165 244.986 215.356 244.844 215.508C244.701 215.661 244.492 215.737 244.218 215.737C243.943 215.737 243.734 215.661 243.592 215.508C243.454 215.356 243.385 215.165 243.385 214.936ZM248.515 217.127L248.561 218.165C249.192 217.371 250.017 216.974 251.035 216.974C252.78 216.974 253.661 217.959 253.676 219.928V225.387H252.264V219.921C252.258 219.325 252.121 218.885 251.851 218.6C251.587 218.315 251.172 218.173 250.607 218.173C250.149 218.173 249.747 218.295 249.401 218.539C249.055 218.783 248.785 219.104 248.592 219.501V225.387H247.179V217.127H248.515ZM255.47 221.188C255.47 219.9 255.767 218.878 256.363 218.119C256.958 217.356 257.747 216.974 258.729 216.974C259.737 216.974 260.523 217.33 261.088 218.043L261.157 217.127H262.447V225.188C262.447 226.257 262.129 227.099 261.493 227.715C260.862 228.331 260.012 228.639 258.943 228.639C258.348 228.639 257.765 228.511 257.195 228.257C256.625 228.002 256.19 227.654 255.89 227.211L256.622 226.364C257.228 227.112 257.969 227.486 258.844 227.486C259.531 227.486 260.065 227.293 260.447 226.906C260.834 226.519 261.027 225.974 261.027 225.272V224.562C260.462 225.214 259.691 225.539 258.714 225.539C257.747 225.539 256.963 225.15 256.363 224.371C255.767 223.593 255.47 222.532 255.47 221.188ZM256.89 221.348C256.89 222.28 257.081 223.012 257.462 223.547C257.844 224.076 258.378 224.341 259.065 224.341C259.956 224.341 260.61 223.936 261.027 223.127V219.356C260.595 218.567 259.946 218.173 259.081 218.173C258.394 218.173 257.857 218.44 257.47 218.974C257.083 219.509 256.89 220.3 256.89 221.348ZM269.394 223.196C269.394 222.814 269.249 222.519 268.959 222.31C268.674 222.096 268.172 221.913 267.455 221.761C266.742 221.608 266.175 221.425 265.753 221.211C265.335 220.997 265.025 220.743 264.821 220.448C264.623 220.152 264.523 219.801 264.523 219.394C264.523 218.717 264.808 218.145 265.378 217.676C265.954 217.208 266.686 216.974 267.577 216.974C268.513 216.974 269.272 217.216 269.852 217.699C270.437 218.183 270.73 218.801 270.73 219.554H269.31C269.31 219.168 269.144 218.834 268.814 218.554C268.488 218.274 268.076 218.134 267.577 218.134C267.063 218.134 266.661 218.246 266.371 218.47C266.081 218.694 265.936 218.987 265.936 219.348C265.936 219.689 266.071 219.946 266.34 220.119C266.61 220.292 267.096 220.458 267.798 220.615C268.506 220.773 269.078 220.962 269.516 221.18C269.954 221.399 270.277 221.664 270.485 221.974C270.699 222.28 270.806 222.654 270.806 223.096C270.806 223.834 270.511 224.427 269.921 224.875C269.33 225.318 268.564 225.539 267.623 225.539C266.961 225.539 266.376 225.422 265.867 225.188C265.358 224.954 264.959 224.628 264.669 224.211C264.384 223.789 264.241 223.333 264.241 222.845H265.653C265.679 223.318 265.867 223.694 266.218 223.974C266.574 224.249 267.043 224.387 267.623 224.387C268.157 224.387 268.585 224.28 268.905 224.066C269.231 223.847 269.394 223.557 269.394 223.196Z" fill="#242631"/>
</g>
<g filter="url(#filter2_d_3576_19625)">
<rect width="388" height="99" rx="8" transform="matrix(1 0 0 -1 127 396.003)" fill="white"/>
</g>
<path d="M317.593 364.772C317.593 367.524 317.023 369.63 315.884 371.088C314.744 372.547 313.076 373.276 310.88 373.276C308.711 373.276 307.052 372.56 305.903 371.129C304.755 369.698 304.167 367.647 304.14 364.977V361.313C304.14 358.533 304.714 356.423 305.862 354.983C307.02 353.543 308.683 352.823 310.853 352.823C313.022 352.823 314.681 353.538 315.829 354.969C316.978 356.391 317.565 358.437 317.593 361.108V364.772ZM313.642 360.752C313.642 359.103 313.414 357.904 312.958 357.157C312.511 356.4 311.81 356.022 310.853 356.022C309.923 356.022 309.235 356.382 308.788 357.102C308.351 357.813 308.118 358.929 308.091 360.451V365.291C308.091 366.914 308.31 368.121 308.747 368.914C309.194 369.698 309.905 370.09 310.88 370.09C311.846 370.09 312.543 369.712 312.972 368.955C313.4 368.199 313.623 367.041 313.642 365.483V360.752ZM320.342 371.061C320.342 370.432 320.552 369.922 320.971 369.53C321.4 369.138 321.933 368.942 322.571 368.942C323.218 368.942 323.751 369.138 324.171 369.53C324.599 369.922 324.813 370.432 324.813 371.061C324.813 371.681 324.604 372.187 324.184 372.578C323.765 372.961 323.227 373.153 322.571 373.153C321.924 373.153 321.391 372.961 320.971 372.578C320.552 372.187 320.342 371.681 320.342 371.061ZM341.221 364.772C341.221 367.524 340.651 369.63 339.512 371.088C338.373 372.547 336.705 373.276 334.508 373.276C332.339 373.276 330.68 372.56 329.532 371.129C328.383 369.698 327.795 367.647 327.768 364.977V361.313C327.768 358.533 328.342 356.423 329.491 354.983C330.648 353.543 332.312 352.823 334.481 352.823C336.65 352.823 338.309 353.538 339.457 354.969C340.606 356.391 341.194 358.437 341.221 361.108V364.772ZM337.27 360.752C337.27 359.103 337.042 357.904 336.586 357.157C336.14 356.4 335.438 356.022 334.481 356.022C333.551 356.022 332.863 356.382 332.416 357.102C331.979 357.813 331.746 358.929 331.719 360.451V365.291C331.719 366.914 331.938 368.121 332.375 368.914C332.822 369.698 333.533 370.09 334.508 370.09C335.474 370.09 336.172 369.712 336.6 368.955C337.028 368.199 337.252 367.041 337.27 365.483V360.752ZM357 364.772C357 367.524 356.43 369.63 355.291 371.088C354.152 372.547 352.484 373.276 350.287 373.276C348.118 373.276 346.459 372.56 345.311 371.129C344.162 369.698 343.574 367.647 343.547 364.977V361.313C343.547 358.533 344.121 356.423 345.27 354.983C346.427 353.543 348.09 352.823 350.26 352.823C352.429 352.823 354.088 353.538 355.236 354.969C356.385 356.391 356.973 358.437 357 361.108V364.772ZM353.049 360.752C353.049 359.103 352.821 357.904 352.365 357.157C351.919 356.4 351.217 356.022 350.26 356.022C349.33 356.022 348.642 356.382 348.195 357.102C347.758 357.813 347.525 358.929 347.498 360.451V365.291C347.498 366.914 347.717 368.121 348.154 368.914C348.601 369.698 349.312 370.09 350.287 370.09C351.253 370.09 351.951 369.712 352.379 368.955C352.807 368.199 353.031 367.041 353.049 365.483V360.752ZM372.779 364.772C372.779 367.524 372.209 369.63 371.07 371.088C369.931 372.547 368.263 373.276 366.066 373.276C363.897 373.276 362.238 372.56 361.089 371.129C359.941 369.698 359.353 367.647 359.326 364.977V361.313C359.326 358.533 359.9 356.423 361.048 354.983C362.206 353.543 363.869 352.823 366.039 352.823C368.208 352.823 369.867 353.538 371.015 354.969C372.164 356.391 372.752 358.437 372.779 361.108V364.772ZM368.828 360.752C368.828 359.103 368.6 357.904 368.144 357.157C367.698 356.4 366.996 356.022 366.039 356.022C365.109 356.022 364.421 356.382 363.974 357.102C363.537 357.813 363.304 358.929 363.277 360.451V365.291C363.277 366.914 363.496 368.121 363.933 368.914C364.38 369.698 365.091 370.09 366.066 370.09C367.032 370.09 367.729 369.712 368.158 368.955C368.586 368.199 368.81 367.041 368.828 365.483V360.752ZM388.558 364.772C388.558 367.524 387.988 369.63 386.849 371.088C385.71 372.547 384.042 373.276 381.845 373.276C379.676 373.276 378.017 372.56 376.868 371.129C375.72 369.698 375.132 367.647 375.105 364.977V361.313C375.105 358.533 375.679 356.423 376.827 354.983C377.985 353.543 379.648 352.823 381.818 352.823C383.987 352.823 385.646 353.538 386.794 354.969C387.943 356.391 388.531 358.437 388.558 361.108V364.772ZM384.607 360.752C384.607 359.103 384.379 357.904 383.923 357.157C383.477 356.4 382.775 356.022 381.818 356.022C380.888 356.022 380.2 356.382 379.753 357.102C379.316 357.813 379.083 358.929 379.056 360.451V365.291C379.056 366.914 379.275 368.121 379.712 368.914C380.159 369.698 380.87 370.09 381.845 370.09C382.811 370.09 383.508 369.712 383.937 368.955C384.365 368.199 384.589 367.041 384.607 365.483V360.752ZM404.474 355.311L396.776 373.002H392.606L400.317 356.295H390.419V353.096H404.474V355.311ZM410.737 361.299H412.842C413.845 361.299 414.588 361.048 415.071 360.547C415.554 360.046 415.796 359.381 415.796 358.551C415.796 357.749 415.554 357.125 415.071 356.678C414.597 356.231 413.941 356.008 413.102 356.008C412.346 356.008 411.712 356.218 411.202 356.637C410.691 357.047 410.436 357.585 410.436 358.25H406.485C406.485 357.211 406.763 356.282 407.319 355.461C407.884 354.632 408.668 353.985 409.671 353.52C410.682 353.055 411.794 352.823 413.006 352.823C415.112 352.823 416.762 353.328 417.956 354.34C419.15 355.343 419.747 356.728 419.747 358.496C419.747 359.408 419.469 360.246 418.913 361.012C418.357 361.778 417.628 362.366 416.725 362.776C417.846 363.177 418.68 363.778 419.227 364.58C419.783 365.382 420.061 366.33 420.061 367.424C420.061 369.192 419.414 370.61 418.12 371.676C416.835 372.742 415.13 373.276 413.006 373.276C411.02 373.276 409.393 372.752 408.126 371.703C406.868 370.655 406.239 369.27 406.239 367.547H410.19C410.19 368.295 410.468 368.905 411.024 369.379C411.589 369.853 412.282 370.09 413.102 370.09C414.041 370.09 414.775 369.844 415.303 369.352C415.841 368.851 416.11 368.19 416.11 367.369C416.11 365.382 415.016 364.389 412.829 364.389H410.737V361.299ZM435.471 358.387C435.471 359.353 435.229 360.21 434.746 360.957C434.263 361.705 433.598 362.302 432.75 362.748C433.716 363.213 434.482 363.856 435.047 364.676C435.612 365.487 435.895 366.444 435.895 367.547C435.895 369.315 435.293 370.714 434.09 371.744C432.887 372.765 431.251 373.276 429.182 373.276C427.113 373.276 425.472 372.761 424.26 371.731C423.048 370.701 422.442 369.306 422.442 367.547C422.442 366.444 422.724 365.483 423.289 364.662C423.854 363.842 424.616 363.204 425.573 362.748C424.725 362.302 424.06 361.705 423.576 360.957C423.103 360.21 422.866 359.353 422.866 358.387C422.866 356.692 423.431 355.343 424.561 354.34C425.691 353.328 427.227 352.823 429.168 352.823C431.101 352.823 432.632 353.324 433.762 354.326C434.901 355.32 435.471 356.673 435.471 358.387ZM431.93 367.26C431.93 366.394 431.679 365.701 431.178 365.182C430.677 364.662 430.002 364.403 429.155 364.403C428.316 364.403 427.646 364.662 427.145 365.182C426.644 365.692 426.393 366.385 426.393 367.26C426.393 368.108 426.639 368.791 427.131 369.311C427.623 369.83 428.307 370.09 429.182 370.09C430.039 370.09 430.709 369.839 431.192 369.338C431.684 368.837 431.93 368.144 431.93 367.26ZM431.52 358.578C431.52 357.804 431.315 357.184 430.905 356.719C430.494 356.245 429.916 356.008 429.168 356.008C428.43 356.008 427.856 356.236 427.446 356.692C427.035 357.147 426.83 357.776 426.83 358.578C426.83 359.371 427.035 360.009 427.446 360.492C427.856 360.976 428.435 361.217 429.182 361.217C429.929 361.217 430.504 360.976 430.905 360.492C431.315 360.009 431.52 359.371 431.52 358.578ZM438.863 363.213L440.012 353.096H451.168V356.391H443.252L442.76 360.67C443.699 360.169 444.697 359.918 445.754 359.918C447.65 359.918 449.135 360.506 450.211 361.682C451.286 362.858 451.824 364.503 451.824 366.617C451.824 367.903 451.551 369.056 451.004 370.076C450.466 371.088 449.691 371.877 448.68 372.442C447.668 372.998 446.474 373.276 445.098 373.276C443.894 373.276 442.778 373.034 441.748 372.551C440.718 372.059 439.902 371.371 439.301 370.487C438.708 369.603 438.394 368.595 438.357 367.465H442.268C442.35 368.295 442.637 368.942 443.129 369.407C443.63 369.862 444.282 370.09 445.084 370.09C445.977 370.09 446.665 369.771 447.148 369.133C447.631 368.486 447.873 367.575 447.873 366.399C447.873 365.269 447.595 364.403 447.039 363.801C446.483 363.2 445.695 362.899 444.674 362.899C443.735 362.899 442.974 363.145 442.391 363.637L442.008 363.992L438.863 363.213Z" fill="#242631"/>
<path d="M464.581 373.002V362.338H468.068C469.225 362.338 470.094 362.577 470.675 363.056C471.261 363.534 471.554 364.242 471.554 365.18C471.554 365.678 471.413 366.12 471.129 366.506C470.846 366.887 470.46 367.182 469.972 367.392C470.548 367.553 471.002 367.861 471.334 368.315C471.671 368.764 471.84 369.301 471.84 369.926C471.84 370.883 471.53 371.635 470.91 372.182C470.289 372.729 469.413 373.002 468.28 373.002H464.581ZM465.988 368.014V371.852H468.31C468.964 371.852 469.479 371.684 469.855 371.347C470.236 371.005 470.426 370.536 470.426 369.941C470.426 368.657 469.728 368.014 468.331 368.014H465.988ZM465.988 366.887H468.112C468.727 366.887 469.218 366.733 469.584 366.425C469.955 366.117 470.141 365.7 470.141 365.173C470.141 364.587 469.97 364.162 469.628 363.898C469.286 363.63 468.766 363.495 468.068 363.495H465.988V366.887ZM481.09 363.495H477.663V373.002H476.264V363.495H472.843V362.338H481.09V363.495ZM490.311 369.618C490.18 370.746 489.762 371.618 489.059 372.233C488.361 372.844 487.431 373.149 486.268 373.149C485.009 373.149 483.998 372.697 483.236 371.794C482.479 370.89 482.101 369.682 482.101 368.168V367.143C482.101 366.152 482.277 365.28 482.628 364.528C482.985 363.776 483.488 363.2 484.137 362.8C484.787 362.394 485.539 362.192 486.393 362.192C487.526 362.192 488.434 362.509 489.118 363.144C489.801 363.774 490.199 364.648 490.311 365.766H488.898C488.776 364.916 488.51 364.301 488.1 363.92C487.694 363.539 487.125 363.349 486.393 363.349C485.495 363.349 484.789 363.681 484.276 364.345C483.768 365.009 483.515 365.954 483.515 367.18V368.212C483.515 369.369 483.756 370.29 484.24 370.973C484.723 371.657 485.399 371.999 486.268 371.999C487.05 371.999 487.648 371.823 488.063 371.471C488.483 371.115 488.761 370.497 488.898 369.618H490.311Z" fill="#242631"/>
<path d="M152.485 334.003V321.206H156.098C157.211 321.206 158.195 321.452 159.051 321.944C159.906 322.436 160.565 323.136 161.028 324.045C161.497 324.953 161.734 325.996 161.74 327.173V327.991C161.74 329.198 161.506 330.255 161.037 331.164C160.574 332.072 159.909 332.769 159.042 333.255C158.181 333.742 157.176 333.991 156.027 334.003H152.485ZM154.173 322.594V332.623H155.948C157.249 332.623 158.26 332.218 158.98 331.41C159.707 330.601 160.07 329.45 160.07 327.956V327.209C160.07 325.755 159.728 324.628 159.042 323.825C158.362 323.016 157.396 322.606 156.142 322.594H154.173ZM169.914 334.003C169.82 333.815 169.744 333.481 169.686 333.001C168.93 333.786 168.027 334.178 166.979 334.178C166.041 334.178 165.271 333.915 164.667 333.387C164.069 332.854 163.771 332.18 163.771 331.366C163.771 330.376 164.146 329.608 164.896 329.063C165.651 328.512 166.712 328.237 168.077 328.237H169.659V327.49C169.659 326.922 169.489 326.47 169.149 326.136C168.81 325.797 168.309 325.627 167.646 325.627C167.066 325.627 166.58 325.773 166.188 326.066C165.795 326.359 165.599 326.714 165.599 327.13H163.964C163.964 326.655 164.131 326.198 164.465 325.758C164.805 325.313 165.262 324.962 165.836 324.704C166.416 324.446 167.052 324.317 167.743 324.317C168.839 324.317 169.697 324.592 170.318 325.143C170.939 325.688 171.262 326.441 171.285 327.402V331.779C171.285 332.652 171.396 333.346 171.619 333.862V334.003H169.914ZM167.216 332.763C167.726 332.763 168.209 332.631 168.666 332.368C169.123 332.104 169.454 331.761 169.659 331.339V329.388H168.385C166.393 329.388 165.396 329.971 165.396 331.137C165.396 331.647 165.566 332.046 165.906 332.333C166.246 332.62 166.683 332.763 167.216 332.763ZM175.601 334.003H173.975V324.493H175.601V334.003ZM173.843 321.97C173.843 321.707 173.922 321.484 174.08 321.302C174.244 321.121 174.484 321.03 174.801 321.03C175.117 321.03 175.357 321.121 175.521 321.302C175.686 321.484 175.768 321.707 175.768 321.97C175.768 322.234 175.686 322.454 175.521 322.63C175.357 322.805 175.117 322.893 174.801 322.893C174.484 322.893 174.244 322.805 174.08 322.63C173.922 322.454 173.843 322.234 173.843 321.97ZM179.978 334.003H178.352V320.503H179.978V334.003ZM185.699 331.621L187.914 324.493H189.654L185.831 335.47C185.239 337.052 184.299 337.843 183.01 337.843L182.702 337.817L182.096 337.703V336.384L182.535 336.42C183.086 336.42 183.514 336.308 183.818 336.086C184.129 335.863 184.384 335.456 184.583 334.864L184.943 333.897L181.551 324.493H183.326L185.699 331.621ZM203.066 328.088H197.521V332.623H203.963V334.003H195.833V321.206H203.875V322.594H197.521V326.708H203.066V328.088ZM211.68 334.003C211.586 333.815 211.51 333.481 211.451 333.001C210.695 333.786 209.793 334.178 208.744 334.178C207.807 334.178 207.036 333.915 206.433 333.387C205.835 332.854 205.536 332.18 205.536 331.366C205.536 330.376 205.911 329.608 206.661 329.063C207.417 328.512 208.478 328.237 209.843 328.237H211.425V327.49C211.425 326.922 211.255 326.47 210.915 326.136C210.575 325.797 210.074 325.627 209.412 325.627C208.832 325.627 208.346 325.773 207.953 326.066C207.561 326.359 207.364 326.714 207.364 327.13H205.729C205.729 326.655 205.896 326.198 206.23 325.758C206.57 325.313 207.027 324.962 207.602 324.704C208.182 324.446 208.817 324.317 209.509 324.317C210.604 324.317 211.463 324.592 212.084 325.143C212.705 325.688 213.027 326.441 213.051 327.402V331.779C213.051 332.652 213.162 333.346 213.385 333.862V334.003H211.68ZM208.981 332.763C209.491 332.763 209.975 332.631 210.432 332.368C210.889 332.104 211.22 331.761 211.425 331.339V329.388H210.15C208.158 329.388 207.162 329.971 207.162 331.137C207.162 331.647 207.332 332.046 207.672 332.333C208.012 332.62 208.448 332.763 208.981 332.763ZM220.196 325.952C219.95 325.911 219.684 325.89 219.396 325.89C218.33 325.89 217.606 326.344 217.226 327.253V334.003H215.6V324.493H217.182L217.208 325.591C217.741 324.742 218.497 324.317 219.476 324.317C219.792 324.317 220.032 324.358 220.196 324.44V325.952ZM223.237 324.493L223.29 325.688C224.017 324.774 224.966 324.317 226.138 324.317C228.147 324.317 229.161 325.451 229.179 327.718V334.003H227.553V327.71C227.547 327.024 227.389 326.517 227.078 326.189C226.773 325.861 226.296 325.697 225.646 325.697C225.118 325.697 224.655 325.838 224.257 326.119C223.858 326.4 223.548 326.769 223.325 327.226V334.003H221.699V324.493H223.237ZM233.397 334.003H231.771V324.493H233.397V334.003ZM231.64 321.97C231.64 321.707 231.719 321.484 231.877 321.302C232.041 321.121 232.281 321.03 232.598 321.03C232.914 321.03 233.154 321.121 233.318 321.302C233.482 321.484 233.564 321.707 233.564 321.97C233.564 322.234 233.482 322.454 233.318 322.63C233.154 322.805 232.914 322.893 232.598 322.893C232.281 322.893 232.041 322.805 231.877 322.63C231.719 322.454 231.64 322.234 231.64 321.97ZM237.546 324.493L237.599 325.688C238.325 324.774 239.274 324.317 240.446 324.317C242.456 324.317 243.47 325.451 243.487 327.718V334.003H241.861V327.71C241.855 327.024 241.697 326.517 241.387 326.189C241.082 325.861 240.604 325.697 239.954 325.697C239.427 325.697 238.964 325.838 238.565 326.119C238.167 326.4 237.856 326.769 237.634 327.226V334.003H236.008V324.493H237.546ZM245.553 329.169C245.553 327.686 245.896 326.508 246.581 325.635C247.267 324.756 248.175 324.317 249.306 324.317C250.466 324.317 251.371 324.727 252.021 325.547L252.101 324.493H253.586V333.774C253.586 335.005 253.22 335.974 252.487 336.683C251.761 337.392 250.782 337.747 249.552 337.747C248.866 337.747 248.195 337.6 247.539 337.307C246.883 337.014 246.382 336.613 246.036 336.103L246.88 335.128C247.577 335.989 248.43 336.42 249.438 336.42C250.229 336.42 250.844 336.197 251.283 335.752C251.729 335.306 251.951 334.679 251.951 333.871V333.053C251.301 333.803 250.413 334.178 249.288 334.178C248.175 334.178 247.272 333.73 246.581 332.834C245.896 331.937 245.553 330.715 245.553 329.169ZM247.188 329.353C247.188 330.425 247.407 331.269 247.847 331.884C248.286 332.494 248.901 332.798 249.692 332.798C250.718 332.798 251.471 332.333 251.951 331.401V327.059C251.453 326.151 250.706 325.697 249.71 325.697C248.919 325.697 248.301 326.005 247.855 326.62C247.41 327.235 247.188 328.146 247.188 329.353ZM261.584 331.48C261.584 331.041 261.417 330.701 261.083 330.461C260.755 330.214 260.178 330.004 259.352 329.828C258.531 329.652 257.878 329.441 257.392 329.195C256.911 328.949 256.554 328.656 256.319 328.316C256.091 327.976 255.977 327.572 255.977 327.103C255.977 326.324 256.305 325.665 256.961 325.126C257.623 324.587 258.467 324.317 259.492 324.317C260.57 324.317 261.443 324.595 262.111 325.152C262.785 325.709 263.122 326.421 263.122 327.288H261.487C261.487 326.842 261.297 326.459 260.916 326.136C260.541 325.814 260.066 325.653 259.492 325.653C258.9 325.653 258.438 325.782 258.104 326.04C257.77 326.297 257.603 326.634 257.603 327.05C257.603 327.443 257.758 327.739 258.068 327.938C258.379 328.137 258.938 328.328 259.747 328.509C260.562 328.691 261.221 328.908 261.725 329.16C262.229 329.412 262.601 329.716 262.841 330.074C263.087 330.425 263.21 330.856 263.21 331.366C263.21 332.215 262.87 332.898 262.19 333.414C261.511 333.923 260.629 334.178 259.545 334.178C258.783 334.178 258.109 334.044 257.523 333.774C256.938 333.505 256.478 333.13 256.144 332.649C255.815 332.163 255.651 331.638 255.651 331.076H257.277C257.307 331.621 257.523 332.054 257.928 332.377C258.338 332.693 258.877 332.851 259.545 332.851C260.16 332.851 260.652 332.728 261.021 332.482C261.396 332.23 261.584 331.896 261.584 331.48Z" fill="#242631"/>
<g filter="url(#filter3_dd_3576_19625)">
<circle cx="489" cy="105" r="33" fill="white"/>
<rect x="472.054" y="88.054" width="33.8919" height="33.8919" rx="16.9459" fill="white"/>
<path d="M489 90.8784C485.107 90.8784 481.939 94.0458 481.939 97.9392V102.176H480.527C478.969 102.176 477.703 103.442 477.703 105V116.297C477.703 117.855 478.969 119.122 480.527 119.122H497.473C499.031 119.122 500.297 117.855 500.297 116.297V105C500.297 103.442 499.031 102.176 497.473 102.176H496.061V97.9392C496.061 94.0458 492.893 90.8784 489 90.8784ZM497.473 105L497.476 116.297H480.527V105H497.473ZM484.764 102.176V97.9392C484.764 95.6035 486.664 93.7027 489 93.7027C491.336 93.7027 493.236 95.6035 493.236 97.9392V102.176H484.764Z" fill="#5A41F5"/>
</g>
<g filter="url(#filter4_d_3576_19625)">
<g filter="url(#filter5_d_3576_19625)">
<circle cx="122" cy="397" r="42" fill="url(#paint0_linear_3576_19625)"/>
</g>
<path d="M137.446 394.793H124.207V381.554H119.794V394.793H106.554V399.206H119.794V412.445H124.207V399.206H137.446V394.793Z" fill="white"/>
</g>
<defs>
<filter id="filter0_d_3576_19625" x="143.691" y="77.7526" width="354.619" height="135.634" filterUnits="userSpaceOnUse" color-interpolation-filters="sRGB">
<feFlood flood-opacity="0" result="BackgroundImageFix"/>
<feColorMatrix in="SourceAlpha" type="matrix" values="0 0 0 0 0 0 0 0 0 0 0 0 0 0 0 0 0 0 127 0" result="hardAlpha"/>
<feOffset dy="6.06186"/>
<feGaussianBlur stdDeviation="15.1546"/>
<feColorMatrix type="matrix" values="0 0 0 0 0.0901961 0 0 0 0 0.121569 0 0 0 0 0.27451 0 0 0 0.08 0"/>
<feBlend mode="normal" in2="BackgroundImageFix" result="effect1_dropShadow_3576_19625"/>
<feBlend mode="normal" in="SourceGraphic" in2="effect1_dropShadow_3576_19625" result="shape"/>
</filter>
<filter id="filter1_d_3576_19625" x="117.758" y="166.222" width="406.485" height="155.472" filterUnits="userSpaceOnUse" color-interpolation-filters="sRGB">
<feFlood flood-opacity="0" result="BackgroundImageFix"/>
<feColorMatrix in="SourceAlpha" type="matrix" values="0 0 0 0 0 0 0 0 0 0 0 0 0 0 0 0 0 0 127 0" result="hardAlpha"/>
<feOffset dy="6.94845"/>
<feGaussianBlur stdDeviation="17.3711"/>
<feColorMatrix type="matrix" values="0 0 0 0 0.0901961 0 0 0 0 0.121569 0 0 0 0 0.27451 0 0 0 0.08 0"/>
<feBlend mode="normal" in2="BackgroundImageFix" result="effect1_dropShadow_3576_19625"/>
<feBlend mode="normal" in="SourceGraphic" in2="effect1_dropShadow_3576_19625" result="shape"/>
</filter>
<filter id="filter2_d_3576_19625" x="87" y="265.003" width="468" height="179" filterUnits="userSpaceOnUse" color-interpolation-filters="sRGB">
<feFlood flood-opacity="0" result="BackgroundImageFix"/>
<feColorMatrix in="SourceAlpha" type="matrix" values="0 0 0 0 0 0 0 0 0 0 0 0 0 0 0 0 0 0 127 0" result="hardAlpha"/>
<feOffset dy="8"/>
<feGaussianBlur stdDeviation="20"/>
<feColorMatrix type="matrix" values="0 0 0 0 0.0901961 0 0 0 0 0.121569 0 0 0 0 0.27451 0 0 0 0.08 0"/>
<feBlend mode="normal" in2="BackgroundImageFix" result="effect1_dropShadow_3576_19625"/>
<feBlend mode="normal" in="SourceGraphic" in2="effect1_dropShadow_3576_19625" result="shape"/>
</filter>
<filter id="filter3_dd_3576_19625" x="374" y="0" width="230" height="230" filterUnits="userSpaceOnUse" color-interpolation-filters="sRGB">
<feFlood flood-opacity="0" result="BackgroundImageFix"/>
<feColorMatrix in="SourceAlpha" type="matrix" values="0 0 0 0 0 0 0 0 0 0 0 0 0 0 0 0 0 0 127 0" result="hardAlpha"/>
<feOffset dy="10"/>
<feGaussianBlur stdDeviation="41"/>
<feColorMatrix type="matrix" values="0 0 0 0 0.0196078 0 0 0 0 0.168627 0 0 0 0 0.380392 0 0 0 0.32 0"/>
<feBlend mode="normal" in2="BackgroundImageFix" result="effect1_dropShadow_3576_19625"/>
<feColorMatrix in="SourceAlpha" type="matrix" values="0 0 0 0 0 0 0 0 0 0 0 0 0 0 0 0 0 0 127 0" result="hardAlpha"/>
<feOffset/>
<feGaussianBlur stdDeviation="0.5"/>
<feColorMatrix type="matrix" values="0 0 0 0 0.0352941 0 0 0 0 0.0392157 0 0 0 0 0.054902 0 0 0 0.16 0"/>
<feBlend mode="normal" in2="effect1_dropShadow_3576_19625" result="effect2_dropShadow_3576_19625"/>
<feBlend mode="normal" in="SourceGraphic" in2="effect2_dropShadow_3576_19625" result="shape"/>
</filter>
<filter id="filter4_d_3576_19625" x="0" y="285" width="244" height="244" filterUnits="userSpaceOnUse" color-interpolation-filters="sRGB">
<feFlood flood-opacity="0" result="BackgroundImageFix"/>
<feColorMatrix in="SourceAlpha" type="matrix" values="0 0 0 0 0 0 0 0 0 0 0 0 0 0 0 0 0 0 127 0" result="hardAlpha"/>
<feOffset dy="10"/>
<feGaussianBlur stdDeviation="40"/>
<feColorMatrix type="matrix" values="0 0 0 0 0.0196078 0 0 0 0 0.168627 0 0 0 0 0.380392 0 0 0 0.5 0"/>
<feBlend mode="normal" in2="BackgroundImageFix" result="effect1_dropShadow_3576_19625"/>
<feBlend mode="normal" in="SourceGraphic" in2="effect1_dropShadow_3576_19625" result="shape"/>
</filter>
<filter id="filter5_d_3576_19625" x="50" y="335" width="144" height="144" filterUnits="userSpaceOnUse" color-interpolation-filters="sRGB">
<feFlood flood-opacity="0" result="BackgroundImageFix"/>
<feColorMatrix in="SourceAlpha" type="matrix" values="0 0 0 0 0 0 0 0 0 0 0 0 0 0 0 0 0 0 127 0" result="hardAlpha"/>
<feOffset dy="10"/>
<feGaussianBlur stdDeviation="15"/>
<feColorMatrix type="matrix" values="0 0 0 0 0.0901961 0 0 0 0 0.121569 0 0 0 0 0.27451 0 0 0 0.25 0"/>
<feBlend mode="normal" in2="BackgroundImageFix" result="effect1_dropShadow_3576_19625"/>
<feBlend mode="normal" in="SourceGraphic" in2="effect1_dropShadow_3576_19625" result="shape"/>
</filter>
<linearGradient id="paint0_linear_3576_19625" x1="185.673" y1="347.831" x2="5.61898" y2="357.536" gradientUnits="userSpaceOnUse">
<stop offset="0.0302404" stop-color="#B3BFFF"/>
<stop offset="0.808251" stop-color="#5262E3"/>
</linearGradient>
</defs>
</svg>
