<svg width="504" height="354" viewBox="0 0 504 354" fill="none" xmlns="http://www.w3.org/2000/svg">
<g opacity="0.6">
<path opacity="0.2" d="M85 12C85 5.37258 90.3726 0 97 0H407C413.627 0 419 5.37258 419 12V354H85V12Z" fill="white"/>
<g opacity="0.2" filter="url(#filter0_d)">
<path fill-rule="evenodd" clip-rule="evenodd" d="M121 45C112.163 45 105 52.1634 105 61V81C105 89.8366 112.163 97 121 97H141C149.837 97 157 89.8366 157 81V61C157 52.1634 149.837 45 141 45H121ZM121 230C112.163 230 105 237.163 105 246V266C105 274.837 112.163 282 121 282H141C149.837 282 157 274.837 157 266V246C157 237.163 149.837 230 141 230H121Z" fill="white"/>
</g>
<g opacity="0.2" filter="url(#filter1_d)">
<path fill-rule="evenodd" clip-rule="evenodd" d="M185 34C182.791 34 181 35.7909 181 38V56C181 58.2091 182.791 60 185 60H391C393.209 60 395 58.2091 395 56V38C395 35.7909 393.209 34 391 34H185ZM185 208C182.791 208 181 209.791 181 212V230C181 232.209 182.791 234 185 234H391C393.209 234 395 232.209 395 230V212C395 209.791 393.209 208 391 208H185ZM181 75C181 72.7909 182.791 71 185 71H391C393.209 71 395 72.7909 395 75V83C395 85.2091 393.209 87 391 87H185C182.791 87 181 85.2091 181 83V75ZM185 245C182.791 245 181 246.791 181 249V257C181 259.209 182.791 261 185 261H391C393.209 261 395 259.209 395 257V249C395 246.791 393.209 245 391 245H185ZM181 101C181 98.7909 182.791 97 185 97H391C393.209 97 395 98.7909 395 101V109C395 111.209 393.209 113 391 113H185C182.791 113 181 111.209 181 109V101ZM185 271C182.791 271 181 272.791 181 275V283C181 285.209 182.791 287 185 287H391C393.209 287 395 285.209 395 283V275C395 272.791 393.209 271 391 271H185ZM181 128C181 125.791 182.791 124 185 124H391C393.209 124 395 125.791 395 128V136C395 138.209 393.209 140 391 140H185C182.791 140 181 138.209 181 136V128ZM185 298C182.791 298 181 299.791 181 302V310C181 312.209 182.791 314 185 314H391C393.209 314 395 312.209 395 310V302C395 299.791 393.209 298 391 298H185Z" fill="white"/>
</g>
</g>
<g filter="url(#filter2_d)">
<rect x="168" y="89" width="306" height="64" rx="8" fill="white"/>
</g>
<path d="M240.848 104.8H238.304L235.488 109.552L232.672 104.8H230.048L234.36 111.576V116H236.592V111.584L240.848 104.8ZM246.679 104.592C243.231 104.592 240.799 107.056 240.799 110.4C240.799 113.744 243.231 116.208 246.679 116.208C250.127 116.208 252.567 113.744 252.567 110.4C252.567 107.056 250.127 104.592 246.679 104.592ZM246.679 106.736C248.743 106.736 250.231 108.224 250.231 110.4C250.231 112.576 248.743 114.064 246.679 114.064C244.623 114.064 243.127 112.576 243.127 110.4C243.127 108.224 244.623 106.736 246.679 106.736ZM264.089 104.8H261.849V111.416C261.849 113.256 260.809 114.064 259.265 114.064C257.721 114.064 256.681 113.256 256.681 111.416V104.8H254.441V111.528C254.441 114.624 256.417 116.2 259.265 116.2C262.113 116.2 264.089 114.624 264.089 111.528V104.8ZM266.442 104.48L265.906 109.248H267.666L268.786 104.48H266.442ZM281.03 104.8H278.71L275.486 113.736L272.278 104.8H269.902L274.11 116H276.822L281.03 104.8ZM290.843 113.952H284.707V111.376H290.499V109.328H284.707V106.848H290.779V104.8H282.475V116H290.843V113.952ZM305.453 113.952H299.317V111.376H305.109V109.328H299.317V106.848H305.389V104.8H297.085V116H305.453V113.952ZM313.717 104.8H310.997L306.637 116H308.965L309.941 113.392H314.717L315.693 116H318.077L313.717 104.8ZM312.333 107.008L313.949 111.336H310.709L312.333 107.008ZM319.522 104.8V116H321.754V111.544H322.41L325.674 116H328.378L324.93 111.512C327.082 111.304 328.362 110.048 328.362 108.208C328.362 106.064 326.93 104.8 324.258 104.8H319.522ZM324.218 106.856C325.402 106.856 326.066 107.28 326.066 108.208C326.066 109.152 325.434 109.6 324.218 109.6H321.754V106.856H324.218ZM340.413 104.8H338.173V112.28L332.485 104.8H330.397V116H332.629L332.637 108.52L338.317 116H340.413V104.8ZM351.328 113.952H345.192V111.376H350.984V109.328H345.192V106.848H351.264V104.8H342.96V116H351.328V113.952ZM353.616 104.8V116H358.232C361.736 116 364.048 113.776 364.048 110.4C364.048 107.024 361.736 104.8 358.232 104.8H353.616ZM358.208 106.888C360.568 106.888 361.712 108.344 361.712 110.4C361.712 112.432 360.568 113.912 358.208 113.912H355.848V106.888H358.208ZM235.672 126.656C233.128 126.656 231.048 128.808 231.048 132.4C231.048 135.984 233.128 138.144 235.672 138.144C238.224 138.144 240.304 135.984 240.304 132.4C240.304 128.808 238.224 126.656 235.672 126.656ZM235.672 127.84C237.52 127.84 239.016 129.464 239.016 132.4C239.016 135.336 237.52 136.96 235.672 136.96C233.84 136.96 232.344 135.336 232.344 132.4C232.344 129.464 233.84 127.84 235.672 127.84ZM243.252 136.144C242.716 136.144 242.252 136.608 242.252 137.144C242.252 137.68 242.716 138.152 243.252 138.152C243.788 138.152 244.252 137.68 244.252 137.144C244.252 136.608 243.788 136.144 243.252 136.144ZM250.813 126.656C248.269 126.656 246.189 128.808 246.189 132.4C246.189 135.984 248.269 138.144 250.813 138.144C253.365 138.144 255.445 135.984 255.445 132.4C255.445 128.808 253.365 126.656 250.813 126.656ZM250.813 127.84C252.661 127.84 254.157 129.464 254.157 132.4C254.157 135.336 252.661 136.96 250.813 136.96C248.981 136.96 247.485 135.336 247.485 132.4C247.485 129.464 248.981 127.84 250.813 127.84ZM260.415 126.656C258.791 126.656 257.631 127.368 256.983 128.32L257.871 129.08C258.367 128.392 259.223 127.808 260.343 127.808C261.751 127.808 262.831 128.576 262.831 129.784C262.831 131.112 261.743 131.784 260.367 131.784H258.903V132.912H260.375C261.863 132.912 263.079 133.648 263.079 134.944C263.079 136.336 261.887 136.992 260.495 136.992C259.391 136.992 258.375 136.568 257.679 135.848L256.887 136.672C257.703 137.592 258.959 138.144 260.519 138.144C262.495 138.144 264.367 137.128 264.367 135C264.367 133.68 263.551 132.776 262.367 132.344C263.423 131.896 264.119 131.04 264.119 129.72C264.119 127.904 262.623 126.656 260.415 126.656ZM266.842 129.232C267.37 128.496 268.066 127.832 269.338 127.832C270.826 127.832 271.658 128.832 271.658 130.12C271.658 131.08 271.194 131.848 270.506 132.568L266.274 137.032V138H273.322V136.824H268.106L271.45 133.288C272.178 132.512 272.954 131.512 272.954 130.12C272.954 128.144 271.65 126.656 269.378 126.656C267.458 126.656 266.474 127.728 265.946 128.512L266.842 129.232ZM280.943 131.36H279.711V134.48H275.959L280.063 126.808H278.663L274.479 134.696V135.648H279.711V138H280.943V135.648H282.855V134.48H280.943V131.36ZM289.163 126.8V138H293.707C296.187 138 297.787 137.064 297.787 134.888C297.787 133.496 296.979 132.6 295.859 132.232C296.867 131.88 297.547 131.016 297.547 129.752C297.547 127.624 295.851 126.8 293.499 126.8H289.163ZM293.651 132.92C295.331 132.92 296.435 133.36 296.435 134.848C296.435 136.352 295.331 136.792 293.651 136.792H290.451V132.92H293.651ZM293.451 128.008C294.995 128.008 296.195 128.384 296.195 129.848C296.195 131.352 295.003 131.72 293.459 131.72H290.451V128.008H293.451ZM308.064 126.8H299.008V128.016H302.896V138H304.176V128.016H308.064V126.8ZM314.83 126.64C311.502 126.64 309.046 129.04 309.046 132.4C309.046 135.76 311.502 138.16 314.83 138.16C316.758 138.16 318.438 137.296 319.366 135.896L318.326 135.128C317.574 136.248 316.31 136.92 314.83 136.92C312.318 136.92 310.398 135.096 310.398 132.4C310.398 129.704 312.318 127.88 314.83 127.88C316.31 127.88 317.59 128.568 318.326 129.68L319.398 128.96C318.518 127.52 316.782 126.64 314.83 126.64ZM334.162 127.88C333.13 127.16 331.842 126.656 330.138 126.656C327.794 126.656 325.898 127.848 325.898 129.976C325.898 131.832 327.29 132.72 329.202 132.936L330.33 133.064C332.106 133.264 333.042 133.808 333.042 134.896C333.042 136.232 331.674 136.936 329.938 136.936C328.482 136.936 327.026 136.344 326.25 135.688L325.546 136.712C326.602 137.576 328.322 138.152 329.946 138.152C332.362 138.152 334.378 137 334.378 134.784C334.378 132.848 332.73 132.064 330.882 131.84L329.818 131.712C328.074 131.504 327.234 130.936 327.234 129.896C327.234 128.632 328.442 127.872 330.13 127.872C331.474 127.872 332.602 128.304 333.506 128.92L334.162 127.88ZM342.065 126.64C338.737 126.64 336.281 129.04 336.281 132.4C336.281 135.76 338.737 138.16 342.065 138.16C345.401 138.16 347.849 135.76 347.849 132.4C347.849 129.04 345.401 126.64 342.065 126.64ZM342.065 127.88C344.585 127.88 346.505 129.704 346.505 132.4C346.505 135.096 344.585 136.92 342.065 136.92C339.553 136.92 337.633 135.096 337.633 132.4C337.633 129.704 339.553 127.88 342.065 127.88ZM362.158 131.752H355.998V128.016H362.462V126.8H354.71V138H355.998V132.968H362.158V131.752ZM369.496 126.8H367.904L363.304 138H364.64L365.904 134.88H371.448L372.72 138H374.096L369.496 126.8ZM368.68 128.072L370.96 133.664H366.4L368.68 128.072ZM376.007 126.8V138H377.295V133.128H378.711L382.655 138H384.255L380.231 133.128H380.415C382.807 133.128 384.311 131.896 384.311 129.96C384.311 127.936 382.919 126.8 380.399 126.8H376.007ZM380.383 128.008C382.063 128.008 382.975 128.664 382.975 129.96C382.975 131.264 382.087 131.96 380.383 131.96H377.295V128.008H380.383ZM387.237 136.144C386.701 136.144 386.237 136.608 386.237 137.144C386.237 137.68 386.701 138.152 387.237 138.152C387.773 138.152 388.237 137.68 388.237 137.144C388.237 136.608 387.773 136.144 387.237 136.144Z" fill="#5A63AF"/>
<path fill-rule="evenodd" clip-rule="evenodd" d="M188.322 121.855C187.893 121.429 187.893 120.739 188.322 120.313L189.878 118.771C190.307 118.345 191.004 118.345 191.433 118.771L196.25 123.545L206.567 113.319C206.996 112.894 207.693 112.894 208.122 113.319L209.678 114.861C210.107 115.287 210.107 115.977 209.678 116.403L197.028 128.942C196.598 129.367 195.902 129.367 195.472 128.942L188.322 121.855Z" fill="#5A63AF"/>
<g filter="url(#filter3_d)">
<rect x="30" y="183" width="306" height="64" rx="8" fill="url(#paint0_linear)"/>
</g>
<path d="M102.848 198.8H100.304L97.488 203.552L94.672 198.8H92.048L96.36 205.576V210H98.592V205.584L102.848 198.8ZM108.679 198.592C105.231 198.592 102.799 201.056 102.799 204.4C102.799 207.744 105.231 210.208 108.679 210.208C112.127 210.208 114.567 207.744 114.567 204.4C114.567 201.056 112.127 198.592 108.679 198.592ZM108.679 200.736C110.743 200.736 112.231 202.224 112.231 204.4C112.231 206.576 110.743 208.064 108.679 208.064C106.623 208.064 105.127 206.576 105.127 204.4C105.127 202.224 106.623 200.736 108.679 200.736ZM126.089 198.8H123.849V205.416C123.849 207.256 122.809 208.064 121.265 208.064C119.721 208.064 118.681 207.256 118.681 205.416V198.8H116.441V205.528C116.441 208.624 118.417 210.2 121.265 210.2C124.113 210.2 126.089 208.624 126.089 205.528V198.8ZM128.506 198.8V210H130.738V205.544H131.394L134.658 210H137.362L133.914 205.512C136.066 205.304 137.346 204.048 137.346 202.208C137.346 200.064 135.914 198.8 133.242 198.8H128.506ZM133.202 200.856C134.386 200.856 135.05 201.28 135.05 202.208C135.05 203.152 134.418 203.6 133.202 203.6H130.738V200.856H133.202ZM143.335 198.8V210H148.183C150.871 210 152.399 208.944 152.399 206.792C152.399 205.584 151.559 204.624 150.535 204.28C151.47 203.936 152.159 203.032 152.159 201.904C152.159 199.768 150.519 198.8 147.911 198.8H143.335ZM148.071 205.344C149.303 205.344 150.079 205.632 150.079 206.68C150.079 207.752 149.303 208.04 148.071 208.04L145.567 208.032V205.344H148.071ZM147.847 200.768C148.951 200.768 149.831 201.008 149.831 202.064C149.831 203.152 148.967 203.384 147.855 203.384H145.567V200.768H147.847ZM156.645 198.8H154.413V210H156.645V198.8ZM175.09 198.8H172.81L170.402 207.392L167.898 198.8H165.426L162.922 207.392L160.514 198.8H158.194L161.538 210H164.242L166.642 202L169.042 210H171.746L175.09 198.8ZM184.999 207.952H178.863V205.376H184.655V203.328H178.863V200.848H184.935V198.8H176.631V210H184.999V207.952ZM195.656 207.952H189.52V205.376H195.312V203.328H189.52V200.848H195.592V198.8H187.288V210H195.656V207.952ZM205.192 210H208.088L203.04 204.264L207.736 198.8H204.936L201.232 203.336H200.176V198.8H197.944V210H200.176V205.392H201.208L205.192 210ZM217.487 207.912H211.567V198.8H209.335V210H217.487V207.912ZM226.989 198.8H224.445L221.629 203.552L218.813 198.8H216.189L220.501 205.576V210H222.733V205.584L226.989 198.8ZM231.913 198.8V210H234.145V205.544H234.801L238.065 210H240.769L237.321 205.512C239.473 205.304 240.753 204.048 240.753 202.208C240.753 200.064 239.321 198.8 236.649 198.8H231.913ZM236.609 200.856C237.793 200.856 238.457 201.28 238.457 202.208C238.457 203.152 237.825 203.6 236.609 203.6H234.145V200.856H236.609ZM251.156 207.952H245.02V205.376H250.812V203.328H245.02V200.848H251.092V198.8H242.788V210H251.156V207.952ZM261.604 198.8H252.428V200.888H255.9V210H258.132V200.888H261.604V198.8ZM272.651 198.8H270.411V205.416C270.411 207.256 269.371 208.064 267.827 208.064C266.283 208.064 265.243 207.256 265.243 205.416V198.8H263.003V205.528C263.003 208.624 264.979 210.2 267.827 210.2C270.675 210.2 272.651 208.624 272.651 205.528V198.8ZM275.069 198.8V210H277.301V205.544H277.957L281.221 210H283.925L280.477 205.512C282.629 205.304 283.909 204.048 283.909 202.208C283.909 200.064 282.477 198.8 279.805 198.8H275.069ZM279.765 200.856C280.949 200.856 281.613 201.28 281.613 202.208C281.613 203.152 280.981 203.6 279.765 203.6H277.301V200.856H279.765ZM295.96 198.8H293.72V206.28L288.032 198.8H285.944V210H288.176L288.184 202.52L293.864 210H295.96V198.8ZM94.904 220.8H93.616V232H94.904V220.8ZM106.1 221.88C105.068 221.16 103.78 220.656 102.076 220.656C99.7316 220.656 97.8356 221.848 97.8356 223.976C97.8356 225.832 99.2276 226.72 101.14 226.936L102.268 227.064C104.044 227.264 104.98 227.808 104.98 228.896C104.98 230.232 103.612 230.936 101.876 230.936C100.42 230.936 98.9636 230.344 98.1876 229.688L97.4836 230.712C98.5396 231.576 100.26 232.152 101.884 232.152C104.3 232.152 106.316 231 106.316 228.784C106.316 226.848 104.668 226.064 102.82 225.84L101.756 225.712C100.012 225.504 99.1716 224.936 99.1716 223.896C99.1716 222.632 100.38 221.872 102.068 221.872C103.412 221.872 104.54 222.304 105.444 222.92L106.1 221.88ZM117.219 220.656C114.675 220.656 112.595 222.808 112.595 226.4C112.595 229.984 114.675 232.144 117.219 232.144C119.771 232.144 121.851 229.984 121.851 226.4C121.851 222.808 119.771 220.656 117.219 220.656ZM117.219 221.84C119.067 221.84 120.563 223.464 120.563 226.4C120.563 229.336 119.067 230.96 117.219 230.96C115.387 230.96 113.891 229.336 113.891 226.4C113.891 223.464 115.387 221.84 117.219 221.84ZM124.799 230.144C124.263 230.144 123.799 230.608 123.799 231.144C123.799 231.68 124.263 232.152 124.799 232.152C125.335 232.152 125.799 231.68 125.799 231.144C125.799 230.608 125.335 230.144 124.799 230.144ZM129.061 232H130.565L133.901 226.776C134.437 225.936 134.733 225.168 134.733 224.296C134.733 222.216 133.037 220.656 130.757 220.656C128.469 220.656 126.789 222.216 126.789 224.296C126.789 226.384 128.429 227.944 130.645 227.944C131.045 227.944 131.437 227.888 131.797 227.768L129.061 232ZM130.757 226.8C129.205 226.8 128.061 225.752 128.061 224.296C128.061 222.848 129.205 221.8 130.757 221.8C132.309 221.8 133.453 222.84 133.453 224.296C133.453 225.76 132.309 226.8 130.757 226.8ZM143.151 220.8H137.079L136.935 226.448H139.375C141.575 226.448 142.383 227.456 142.383 228.68C142.383 229.944 141.479 230.976 139.831 230.976C138.695 230.976 137.591 230.48 136.863 229.608L136.039 230.408C136.983 231.56 138.255 232.152 139.831 232.152C141.951 232.152 143.663 230.864 143.663 228.576C143.663 226.784 142.391 225.28 139.751 225.28H138.103L138.207 221.968H143.151V220.8ZM146.185 223.232C146.713 222.496 147.409 221.832 148.681 221.832C150.169 221.832 151.001 222.832 151.001 224.12C151.001 225.08 150.537 225.848 149.849 226.568L145.617 231.032V232H152.665V230.824H147.449L150.793 227.288C151.521 226.512 152.297 225.512 152.297 224.12C152.297 222.144 150.993 220.656 148.721 220.656C146.801 220.656 145.817 221.728 145.289 222.512L146.185 223.232ZM156.358 232H157.862L161.198 226.776C161.734 225.936 162.03 225.168 162.03 224.296C162.03 222.216 160.334 220.656 158.054 220.656C155.766 220.656 154.086 222.216 154.086 224.296C154.086 226.384 155.726 227.944 157.942 227.944C158.342 227.944 158.734 227.888 159.094 227.768L156.358 232ZM158.054 226.8C156.502 226.8 155.358 225.752 155.358 224.296C155.358 222.848 156.502 221.8 158.054 221.8C159.606 221.8 160.75 222.84 160.75 224.296C160.75 225.76 159.606 226.8 158.054 226.8ZM166.36 220.648C164.696 220.648 163.432 221.896 163.432 223.544C163.432 225.208 164.696 226.456 166.36 226.456C168.048 226.456 169.32 225.208 169.32 223.544C169.32 221.896 168.048 220.648 166.36 220.648ZM166.36 221.704C167.416 221.704 168.192 222.472 168.192 223.544C168.192 224.632 167.416 225.4 166.36 225.4C165.336 225.4 164.552 224.632 164.552 223.544C164.552 222.472 165.336 221.704 166.36 221.704ZM174.56 220.8H173.312L166.248 232H167.496L174.56 220.8ZM174.424 226.344C172.76 226.344 171.496 227.6 171.496 229.248C171.496 230.912 172.76 232.152 174.424 232.152C176.112 232.152 177.384 230.912 177.384 229.248C177.384 227.6 176.112 226.344 174.424 226.344ZM174.424 227.4C175.48 227.4 176.264 228.168 176.264 229.248C176.264 230.328 175.48 231.096 174.424 231.096C173.4 231.096 172.616 230.328 172.616 229.248C172.616 228.168 173.4 227.4 174.424 227.4Z" fill="white"/>
<path fill-rule="evenodd" clip-rule="evenodd" d="M50.3222 215.855C49.8926 215.429 49.8926 214.739 50.3222 214.313L51.8778 212.771C52.3073 212.345 53.0039 212.345 53.4334 212.771L58.25 217.545L68.5666 207.319C68.9961 206.894 69.6927 206.894 70.1222 207.319L71.6778 208.861C72.1074 209.287 72.1074 209.977 71.6778 210.403L59.0278 222.942C58.5982 223.367 57.9017 223.367 57.4722 222.942L50.3222 215.855Z" fill="white"/>
<defs>
<filter id="filter0_d" x="85" y="35" width="92" height="277" filterUnits="userSpaceOnUse" color-interpolation-filters="sRGB">
<feFlood flood-opacity="0" result="BackgroundImageFix"/>
<feColorMatrix in="SourceAlpha" type="matrix" values="0 0 0 0 0 0 0 0 0 0 0 0 0 0 0 0 0 0 127 0"/>
<feOffset dy="10"/>
<feGaussianBlur stdDeviation="10"/>
<feColorMatrix type="matrix" values="0 0 0 0 0 0 0 0 0 0 0 0 0 0 0 0 0 0 0.08 0"/>
<feBlend mode="normal" in2="BackgroundImageFix" result="effect1_dropShadow"/>
<feBlend mode="normal" in="SourceGraphic" in2="effect1_dropShadow" result="shape"/>
</filter>
<filter id="filter1_d" x="161" y="24" width="254" height="320" filterUnits="userSpaceOnUse" color-interpolation-filters="sRGB">
<feFlood flood-opacity="0" result="BackgroundImageFix"/>
<feColorMatrix in="SourceAlpha" type="matrix" values="0 0 0 0 0 0 0 0 0 0 0 0 0 0 0 0 0 0 127 0"/>
<feOffset dy="10"/>
<feGaussianBlur stdDeviation="10"/>
<feColorMatrix type="matrix" values="0 0 0 0 0 0 0 0 0 0 0 0 0 0 0 0 0 0 0.08 0"/>
<feBlend mode="normal" in2="BackgroundImageFix" result="effect1_dropShadow"/>
<feBlend mode="normal" in="SourceGraphic" in2="effect1_dropShadow" result="shape"/>
</filter>
<filter id="filter2_d" x="138" y="69" width="366" height="124" filterUnits="userSpaceOnUse" color-interpolation-filters="sRGB">
<feFlood flood-opacity="0" result="BackgroundImageFix"/>
<feColorMatrix in="SourceAlpha" type="matrix" values="0 0 0 0 0 0 0 0 0 0 0 0 0 0 0 0 0 0 127 0"/>
<feOffset dy="10"/>
<feGaussianBlur stdDeviation="15"/>
<feColorMatrix type="matrix" values="0 0 0 0 0.0901961 0 0 0 0 0.121569 0 0 0 0 0.27451 0 0 0 0.25 0"/>
<feBlend mode="normal" in2="BackgroundImageFix" result="effect1_dropShadow"/>
<feBlend mode="normal" in="SourceGraphic" in2="effect1_dropShadow" result="shape"/>
</filter>
<filter id="filter3_d" x="0" y="163" width="366" height="124" filterUnits="userSpaceOnUse" color-interpolation-filters="sRGB">
<feFlood flood-opacity="0" result="BackgroundImageFix"/>
<feColorMatrix in="SourceAlpha" type="matrix" values="0 0 0 0 0 0 0 0 0 0 0 0 0 0 0 0 0 0 127 0"/>
<feOffset dy="10"/>
<feGaussianBlur stdDeviation="15"/>
<feColorMatrix type="matrix" values="0 0 0 0 0.0901961 0 0 0 0 0.121569 0 0 0 0 0.27451 0 0 0 0.25 0"/>
<feBlend mode="normal" in2="BackgroundImageFix" result="effect1_dropShadow"/>
<feBlend mode="normal" in="SourceGraphic" in2="effect1_dropShadow" result="shape"/>
</filter>
<linearGradient id="paint0_linear" x1="414.952" y1="177.538" x2="-201.899" y2="336.503" gradientUnits="userSpaceOnUse">
<stop offset="0.0302404" stop-color="#B3BFFF"/>
<stop offset="0.808251" stop-color="#5262E3"/>
</linearGradient>
</defs>
</svg>
