<svg width="524" height="509" viewBox="0 0 524 509" fill="none" xmlns="http://www.w3.org/2000/svg">
<path d="M124.426 288.993C109.713 288.993 97.6194 300.056 96.007 314.337C81.7638 311.185 68.4612 305.554 56.5023 297.977C65.4379 286.781 64.6989 270.422 54.3524 260.03C43.9388 249.638 27.5457 248.967 16.3259 257.951C8.80119 246.017 3.15767 232.675 -6.6643e-06 218.461C14.3103 216.852 25.3286 204.851 25.3286 190.168C25.3286 175.485 14.3103 163.417 -4.1879e-06 161.808C3.22486 147.594 8.8012 134.252 16.3259 122.318C27.5457 131.302 43.9388 130.632 54.3524 120.24C64.7661 109.848 65.4379 93.4887 56.4352 82.2921C68.3941 74.783 81.7638 69.2182 96.007 66C97.6194 80.2807 109.713 91.2762 124.426 91.2762C139.14 91.2762 151.166 80.2807 152.778 66C167.021 69.1511 180.391 74.783 192.35 82.2921C183.347 93.4887 184.019 109.848 194.433 120.24C204.846 130.565 221.239 131.302 232.459 122.385C240.051 134.319 245.695 147.594 248.852 161.808C234.542 163.417 223.456 175.485 223.456 190.168C223.456 204.851 234.542 216.852 248.852 218.461C245.695 232.675 240.051 245.95 232.526 257.884C221.306 248.967 204.913 249.638 194.433 260.03C184.019 270.489 183.347 286.848 192.283 298.045C180.324 305.554 167.021 311.185 152.778 314.337C151.166 300.056 139.14 288.993 124.426 288.993ZM187.916 190.168C187.916 155.171 159.497 126.743 124.426 126.743C89.3557 126.743 60.8694 155.171 60.8694 190.168C60.8694 225.166 89.3557 253.593 124.426 253.593C159.497 253.593 187.916 225.166 187.916 190.168Z" fill="#F7F8FA"/>
<path d="M374.151 464.683C371.283 461.792 371.283 457.129 374.151 454.237L410.912 417.615C413.656 414.568 418.364 414.351 421.388 417.086C424.444 419.822 424.662 424.517 421.918 427.532C421.762 427.719 421.575 427.874 421.388 428.061L389.897 459.46L421.419 490.891C424.288 493.782 424.288 498.445 421.419 501.337C420.016 502.736 418.114 503.513 416.15 503.513C414.155 503.513 412.253 502.736 410.85 501.337L374.151 464.683ZM474.393 490.891L506.009 459.46L474.487 428.03C471.587 425.107 471.618 420.413 474.549 417.522C477.48 414.63 482.188 414.661 485.088 417.584L521.849 454.237C524.717 457.129 524.717 461.792 521.849 464.683L485.088 501.337C483.716 502.736 481.814 503.513 479.85 503.513C477.886 503.513 475.984 502.736 474.581 501.337C471.681 498.476 471.65 493.813 474.518 490.891H474.393ZM429.401 499.875L448.608 415.75C449.512 411.77 453.503 409.283 457.494 410.185C461.485 411.086 463.979 415.066 463.075 419.045L443.806 503.171C443.058 506.528 440.065 508.922 436.604 508.953C436.043 509.016 435.481 509.016 434.92 508.953C430.929 508.052 428.435 504.072 429.339 500.093C429.37 500.031 429.37 499.969 429.401 499.875Z" fill="#F7F8FA"/>
<path opacity="0.8" d="M335.41 171.725C333.59 159.368 323.082 149.759 310.114 149.501C297.146 149.243 286.173 158.416 283.867 170.651C275.065 167.305 266.882 162.33 259.855 155.877C269.765 148.255 273.089 134.374 267.052 122.925C261.059 111.57 247.742 106.432 235.818 110.316C234.585 101.507 234.948 92.6341 236.806 84.0924C248.396 88.7775 262.016 84.5491 268.825 73.5901C275.681 62.6086 273.379 48.509 264.019 40.2093C268.404 36.7274 273.249 33.7224 278.507 31.217C281.301 29.8852 284.069 28.7404 286.926 27.7847C288.746 40.1418 299.254 49.7509 312.222 50.0092C325.19 50.2675 336.163 41.0944 338.47 28.8589C347.271 32.2048 355.454 37.1796 362.482 43.6329C352.572 51.2555 349.248 65.136 355.285 76.5854C361.277 87.9403 374.595 93.0783 386.519 89.1941C387.752 98.0026 387.389 106.876 385.531 115.418C373.941 110.733 360.321 114.961 353.512 125.92C346.656 136.901 348.957 151.001 358.318 159.301C353.932 162.783 349.087 165.788 343.83 168.293C341.035 169.625 338.268 170.77 335.41 171.725ZM340.772 85.6476C333.609 70.6165 315.647 64.2697 300.585 71.4475C285.522 78.6254 279.138 96.5741 286.301 111.605C293.464 126.636 311.426 132.983 326.488 125.805C341.551 118.627 347.935 100.679 340.772 85.6476Z" fill="#F7F8FA"/>
</svg>
